<svg width="33" height="32" viewBox="0 0 33 32" fill="none" xmlns="http://www.w3.org/2000/svg">
<path fill-rule="evenodd" clip-rule="evenodd" d="M9.03333 2.13333C5.49872 2.13333 2.63333 4.99872 2.63333 8.53333V23.4667C2.63333 23.6719 2.64299 23.8748 2.66188 24.0751L5.08075 20.2049C7.76224 15.9145 13.8444 15.4769 17.1124 19.3391L19.8689 22.5967C22.3069 18.9143 27.9223 18.8667 30.3667 22.6888V16C30.3667 15.4109 30.8442 14.9333 31.4333 14.9333C32.0225 14.9333 32.5 15.4109 32.5 16V23.4667C32.5 28.1795 28.6795 32 23.9667 32H9.03333C4.3205 32 0.5 28.1795 0.5 23.4667V8.53333C0.5 3.8205 4.3205 0 9.03333 0H16.5C17.0891 0 17.5667 0.477563 17.5667 1.06667C17.5667 1.65577 17.0891 2.13333 16.5 2.13333H9.03333ZM29.7513 26.2084L28.8315 24.3078C27.2962 21.1354 22.8008 21.2172 21.3366 24.3314L25.7959 29.6014C27.5446 29.0808 28.9801 27.8328 29.7513 26.2084ZM9.03333 29.8667C6.68768 29.8667 4.63671 28.6047 3.52236 26.7228C3.52762 26.7148 3.53278 26.7068 3.53786 26.6987L6.88981 21.3355C8.80517 18.271 13.1495 17.9584 15.4839 20.7171L23.2258 29.8667H9.03333Z" fill="#10375C"/>
<path d="M31.0794 7.18797C30.6416 7.58205 29.9671 7.54653 29.573 7.10866L26.6326 3.84147V12.7951C26.6326 13.3842 26.155 13.8618 25.5659 13.8618C24.9768 13.8618 24.4992 13.3842 24.4992 12.7951V3.84146L21.5588 7.10866C21.1647 7.54653 20.4902 7.58205 20.0524 7.18797C19.6144 6.79389 19.579 6.11944 19.973 5.68157L23.1873 2.11009C24.4585 0.697677 26.6733 0.697677 27.9445 2.1101L31.1588 5.68157C31.5528 6.11944 31.5173 6.79389 31.0794 7.18797Z" fill="#10375C"/>
</svg>
