<svg width="16" height="16" viewBox="0 0 16 16" fill="none" xmlns="http://www.w3.org/2000/svg">
<path d="M14.6454 12.2187C14.6454 12.4587 14.592 12.7054 14.4787 12.9454C14.3654 13.1854 14.2187 13.412 14.0254 13.6254C13.6987 13.9854 13.3387 14.2454 12.932 14.412C12.532 14.5787 12.0987 14.6654 11.632 14.6654C10.952 14.6654 10.2254 14.5054 9.4587 14.1787C8.69203 13.852 7.92536 13.412 7.16536 12.8587C6.3987 12.2987 5.67203 11.6787 4.9787 10.992C4.29203 10.2987 3.67203 9.57203 3.1187 8.81203C2.57203 8.05203 2.13203 7.29203 1.81203 6.5387C1.49203 5.7787 1.33203 5.05203 1.33203 4.3587C1.33203 3.90536 1.41203 3.47203 1.57203 3.07203C1.73203 2.66536 1.98536 2.29203 2.3387 1.9587C2.76536 1.5387 3.23203 1.33203 3.72536 1.33203C3.91203 1.33203 4.0987 1.37203 4.26536 1.45203C4.4387 1.53203 4.59203 1.65203 4.71203 1.82536L6.2587 4.00536C6.3787 4.17203 6.46536 4.32536 6.52536 4.47203C6.58536 4.61203 6.6187 4.75203 6.6187 4.8787C6.6187 5.0387 6.57203 5.1987 6.4787 5.35203C6.39203 5.50536 6.26536 5.66536 6.10536 5.82536L5.5987 6.35203C5.52536 6.42536 5.49203 6.51203 5.49203 6.6187C5.49203 6.67203 5.4987 6.7187 5.51203 6.77203C5.53203 6.82536 5.55203 6.86536 5.56536 6.90536C5.68536 7.12536 5.89203 7.41203 6.18536 7.7587C6.48536 8.10537 6.80536 8.4587 7.15203 8.81203C7.51203 9.16536 7.8587 9.49203 8.21203 9.79203C8.5587 10.0854 8.84536 10.2854 9.07203 10.4054C9.10536 10.4187 9.14536 10.4387 9.19203 10.4587C9.24536 10.4787 9.2987 10.4854 9.3587 10.4854C9.47203 10.4854 9.5587 10.4454 9.63203 10.372L10.1387 9.87203C10.3054 9.70537 10.4654 9.5787 10.6187 9.4987C10.772 9.40536 10.9254 9.3587 11.092 9.3587C11.2187 9.3587 11.352 9.38536 11.4987 9.44536C11.6454 9.50536 11.7987 9.59203 11.9654 9.70537L14.172 11.272C14.3454 11.392 14.4654 11.532 14.5387 11.6987C14.6054 11.8654 14.6454 12.032 14.6454 12.2187Z" stroke="#10375C" stroke-width="1.5" stroke-miterlimit="10"/>
</svg>
