<svg width="21" height="21" viewBox="0 0 21 21" fill="none" xmlns="http://www.w3.org/2000/svg">
<path d="M8.5 18.9998C8.5 20.1098 7.61 20.9998 6.5 20.9998C5.39 20.9998 4.5 20.1098 4.5 18.9998C4.5 17.8898 5.4 16.9998 6.5 16.9998C7.6 16.9998 8.5 17.8998 8.5 18.9998ZM16.5 16.9998C15.4 16.9998 14.5 17.8998 14.5 18.9998C14.5 20.0998 15.4 20.9998 16.5 20.9998C17.6 20.9998 18.5 20.1098 18.5 18.9998C18.5 17.8898 17.61 16.9998 16.5 16.9998ZM6.67 13.7498L6.7 13.6298L7.6 11.9998H15.05C15.8 11.9998 16.46 11.5898 16.8 10.9698L20.66 3.95984L18.92 2.99984H18.91L17.81 4.99984L15.05 9.99984H8.03L7.9 9.72984L5.66 4.99984L4.71 2.99984L3.77 0.999844H0.5V2.99984H2.5L6.1 10.5898L4.75 13.0398C4.59 13.3198 4.5 13.6498 4.5 13.9998C4.5 15.1098 5.4 15.9998 6.5 15.9998H18.5V13.9998H6.92C6.79 13.9998 6.67 13.8898 6.67 13.7498ZM17.5 1.75984L16.09 0.339844L11.25 5.17984L8.66 2.58984L7.25 3.99984L11.25 7.99984L17.5 1.75984Z" fill="black"/>
</svg>
