
<svg width="17" height="16" viewBox="0 0 17 16" fill="none" xmlns="http://www.w3.org/2000/svg">
<path d="M6.16536 12.6654H5.83203C3.16536 12.6654 1.83203 11.9987 1.83203 8.66536V5.33203C1.83203 2.66536 3.16536 1.33203 5.83203 1.33203H11.1654C13.832 1.33203 15.1654 2.66536 15.1654 5.33203V8.66536C15.1654 11.332 13.832 12.6654 11.1654 12.6654H10.832C10.6254 12.6654 10.4254 12.7654 10.2987 12.932L9.2987 14.2654C8.8587 14.852 8.1387 14.852 7.6987 14.2654L6.6987 12.932C6.59203 12.7854 6.34536 12.6654 6.16536 12.6654Z" stroke="#10375C" stroke-width="1.5" stroke-miterlimit="10" stroke-linecap="round" stroke-linejoin="round"/>
<path d="M11.1656 7.33333H11.1716" stroke="#292D32" stroke-width="2" stroke-linecap="round" stroke-linejoin="round"/>
<path d="M8.49764 7.33333H8.50363" stroke="#292D32" stroke-width="2" stroke-linecap="round" stroke-linejoin="round"/>
<path d="M5.82967 7.33333H5.83566" stroke="#292D32" stroke-width="2" stroke-linecap="round" stroke-linejoin="round"/>
</svg>
