<svg width="104" height="119" viewBox="0 0 104 119" fill="none" xmlns="http://www.w3.org/2000/svg">
<path d="M92.5719 1.5V7.33124" stroke="#D82E34" stroke-opacity="0.82" stroke-width="2.42969" stroke-linecap="round" stroke-linejoin="round"/>
<path d="M92.5719 15.1055V20.9367" stroke="#D82E34" stroke-opacity="0.82" stroke-width="2.42969" stroke-linecap="round" stroke-linejoin="round"/>
<path d="M82.8555 11.2172H88.6867" stroke="#D82E34" stroke-opacity="0.82" stroke-width="2.42969" stroke-linecap="round" stroke-linejoin="round"/>
<path d="M96.4609 11.2172H102.292" stroke="#D82E34" stroke-opacity="0.82" stroke-width="2.42969" stroke-linecap="round" stroke-linejoin="round"/>
<path d="M11.9078 101.602V105.489" stroke="#DF5459" stroke-width="2.42969" stroke-linecap="round" stroke-linejoin="round"/>
<path d="M11.9078 113.262V117.149" stroke="#DF5459" stroke-width="2.42969" stroke-linecap="round" stroke-linejoin="round"/>
<path d="M4.13281 109.377H8.02031" stroke="#DF5459" stroke-width="2.42969" stroke-linecap="round" stroke-linejoin="round"/>
<path d="M15.7969 109.377H19.6844" stroke="#DF5459" stroke-width="2.42969" stroke-linecap="round" stroke-linejoin="round"/>
<path fill-rule="evenodd" clip-rule="evenodd" d="M81.1164 85.2047C82.4679 83.5495 83.6828 81.8185 84.7608 80.0269C87.1319 76.0866 88.8409 71.8532 89.8854 67.4886C90.9418 63.0744 91.3185 58.526 91.0128 54.0107C90.7461 50.0707 89.9598 46.156 88.6522 42.3776C87.3549 38.6291 85.5445 35.0149 83.2193 31.6435C81.8338 29.6345 80.2655 27.7118 78.514 25.8983C75.9425 23.2358 73.1219 20.9595 70.125 19.071C66.9049 17.0418 63.4812 15.4602 59.9441 14.3279C55.5143 12.9099 50.9067 12.1966 46.2984 12.1914C42.7129 12.1874 39.1269 12.612 35.6239 13.467C31.6803 14.4295 27.8419 15.9373 24.2278 17.9928C21.0508 19.7996 18.0472 22.0297 15.2977 24.6845C11.8425 28.0208 9.04368 31.7816 6.90386 35.8065C4.80887 39.7471 3.34552 43.9408 2.51616 48.2369C1.6617 52.6631 1.48019 57.1981 1.97422 61.6771C2.61455 67.4824 4.38972 73.1937 7.30539 78.4523C9.17104 81.8172 11.5036 84.9967 14.3047 87.8969C18.7514 92.501 23.9428 95.95 29.5031 98.2367C36.2649 101.018 43.572 102.079 50.7484 101.409C56.7714 100.847 62.7024 99.0646 68.1414 96.0546" fill="white"/>
<path d="M81.1164 85.2047C82.4679 83.5495 83.6828 81.8185 84.7608 80.0269C87.1319 76.0866 88.8409 71.8532 89.8854 67.4886C90.9418 63.0744 91.3185 58.526 91.0128 54.0107C90.7461 50.0707 89.9598 46.156 88.6522 42.3776C87.3549 38.6291 85.5445 35.0149 83.2193 31.6435C81.8338 29.6345 80.2655 27.7118 78.514 25.8983C75.9425 23.2358 73.1219 20.9595 70.125 19.071C66.9049 17.0418 63.4812 15.4602 59.9441 14.3279C55.5143 12.9099 50.9067 12.1966 46.2984 12.1914C42.7129 12.1874 39.1269 12.612 35.6239 13.467C31.6803 14.4295 27.8419 15.9373 24.2278 17.9928C21.0508 19.7996 18.0472 22.0297 15.2977 24.6845C11.8425 28.0208 9.04368 31.7816 6.90386 35.8065C4.80887 39.7471 3.34552 43.9408 2.51616 48.2369C1.6617 52.6631 1.48019 57.1981 1.97422 61.6771C2.61455 67.4824 4.38972 73.1937 7.30539 78.4523C9.17104 81.8172 11.5036 84.9967 14.3047 87.8969C18.7514 92.501 23.9428 95.95 29.5031 98.2367C36.2649 101.018 43.572 102.079 50.7484 101.409C56.7714 100.847 62.7024 99.0646 68.1414 96.0546" stroke="#D82E34" stroke-width="2.42969" stroke-linecap="round" stroke-linejoin="round"/>
<path fill-rule="evenodd" clip-rule="evenodd" d="M71.3892 94.1933C74.2135 92.3758 76.7246 90.1082 78.3583 88.2776L71.3892 94.1933Z" fill="white"/>
<path d="M71.3892 94.1933C74.2135 92.3758 76.7246 90.1082 78.3583 88.2776" stroke="#D82E34" stroke-width="2.42969" stroke-linecap="round"/>
<path d="M87.2273 59.4402C86.9493 59.4452 86.6707 59.4476 86.3915 59.4476C61.8482 59.4476 41.752 40.313 40.068 16.0781C20.5326 19.1596 5.58984 36.1498 5.58984 56.6475C5.58984 79.3288 23.8858 97.7156 46.4551 97.7156C68.0903 97.7156 85.7987 80.819 87.2273 59.4402Z" fill="#D82E34" fill-opacity="0.07"/>
<path d="M61 46.2943C55.45 45.7443 49.8667 45.4609 44.3 45.4609C41 45.4609 37.7 45.6276 34.4 45.9609L31 46.2943" stroke="#D82E34" stroke-width="2.5" stroke-linecap="round" stroke-linejoin="round"/>
<path d="M40.168 44.6102L40.5346 42.4268C40.8013 40.8435 41.0013 39.6602 43.818 39.6602H48.1846C51.0013 39.6602 51.218 40.9102 51.468 42.4435L51.8346 44.6102" stroke="#D82E34" stroke-width="2.5" stroke-linecap="round" stroke-linejoin="round"/>
<path d="M57.4154 51.5625L56.332 68.3458C56.1487 70.9625 55.9987 72.9958 51.3487 72.9958H40.6487C35.9987 72.9958 35.8487 70.9625 35.6654 68.3458L34.582 51.5625" stroke="#D82E34" stroke-width="2.5" stroke-linecap="round" stroke-linejoin="round"/>
<path d="M43.2148 63.8281H48.7648" stroke="#D82E34" stroke-width="2.5" stroke-linecap="round" stroke-linejoin="round"/>
<path d="M41.832 57.1602H50.1654" stroke="#D82E34" stroke-width="2.5" stroke-linecap="round" stroke-linejoin="round"/>
<path fill-rule="evenodd" clip-rule="evenodd" d="M32.6336 20.3691C30.7383 21.0802 28.8869 21.9442 27.0983 22.9616C24.3189 24.5425 21.6912 26.4937 19.2859 28.8165C18.2999 29.7686 17.375 30.7603 16.5113 31.7866M13.8385 35.3593C13.1518 36.3972 12.5197 37.461 11.9425 38.5469C11.5162 39.3489 11.1198 40.1628 10.7533 40.9871" fill="white"/>
<path d="M33.0603 21.5065C33.6885 21.2709 34.0067 20.5706 33.771 19.9424C33.5354 19.3142 32.8351 18.996 32.2069 19.2317L33.0603 21.5065ZM27.0983 22.9616L27.6989 24.0175L27.0983 22.9616ZM19.2859 28.8165L18.442 27.9426L19.2859 28.8165ZM15.5818 31.0044C15.1498 31.5178 15.2157 32.2841 15.7291 32.7161C16.2424 33.1481 17.0088 33.0822 17.4408 32.5688L15.5818 31.0044ZM14.8516 36.0298C15.2219 35.4703 15.0685 34.7165 14.509 34.3462C13.9494 33.976 13.1957 34.1294 12.8254 34.6889L14.8516 36.0298ZM11.9425 38.5469L13.0152 39.1171L11.9425 38.5469ZM9.64321 40.4936C9.37063 41.1066 9.64665 41.8246 10.2597 42.0972C10.8728 42.3698 11.5908 42.0938 11.8633 41.4807L9.64321 40.4936ZM32.2069 19.2317C30.2521 19.965 28.3425 20.8562 26.4977 21.9056L27.6989 24.0175C29.4313 23.0322 31.2245 22.1953 33.0603 21.5065L32.2069 19.2317ZM26.4977 21.9056C23.6307 23.5363 20.9211 25.5485 18.442 27.9426L20.1298 29.6903C22.4614 27.4388 25.0072 25.5486 27.6989 24.0175L26.4977 21.9056ZM18.442 27.9426C17.4259 28.9238 16.4724 29.9461 15.5818 31.0044L17.4408 32.5688C18.2776 31.5745 19.174 30.6134 20.1298 29.6903L18.442 27.9426ZM12.8254 34.6889C12.1171 35.7593 11.4652 36.8567 10.8698 37.9767L13.0152 39.1171C13.5743 38.0654 14.1864 37.035 14.8516 36.0298L12.8254 34.6889ZM10.8698 37.9767C10.4301 38.8039 10.0212 39.6434 9.64321 40.4936L11.8633 41.4807C12.2183 40.6823 12.6023 39.8939 13.0152 39.1171L10.8698 37.9767Z" fill="#DF5459"/>
</svg>
