<svg width="22" height="20" viewBox="0 0 22 20" fill="none" xmlns="http://www.w3.org/2000/svg">
<path d="M17.6124 7.31161C17.9011 8.15148 18.0848 9.07009 18.0848 10.0149C18.0848 14.503 14.4628 18.1249 9.97479 18.1249C5.48673 18.1249 1.83854 14.503 1.83854 10.0149C1.83854 5.52689 5.48673 1.90495 9.94854 1.90495C11.9957 1.90495 13.8592 2.66608 15.2765 3.89964L16.2213 2.95479C14.5678 1.45877 12.3632 0.566406 9.94854 0.566406C4.7256 0.566406 0.5 4.792 0.5 10.0149C0.5 15.2379 4.7256 19.4635 9.94854 19.4635C15.1715 19.4635 19.3971 15.2379 19.3971 10.0149C19.3971 8.6764 19.1346 7.4166 18.636 6.26178L17.6124 7.31161Z" fill="black"/>
<path d="M21.3381 2.03508L19.9995 0.696538C19.7896 0.486571 19.4484 0.486571 19.2384 0.696538L9.31743 10.6438L6.08918 7.38926C5.87922 7.17929 5.53802 7.17929 5.32805 7.38926L3.98951 8.7278C3.77954 8.93777 3.77954 9.27896 3.98951 9.48893L7.50646 13.0059C7.53271 13.0321 7.55896 13.0846 7.5852 13.1109L8.92375 14.4494C9.00248 14.5282 9.10747 14.5806 9.21245 14.6069C9.39617 14.6594 9.57989 14.6069 9.73737 14.4757L11.0759 13.1371C11.1284 13.0846 11.1547 13.0584 11.1809 13.0059L21.3643 2.82246C21.548 2.58625 21.548 2.24505 21.3381 2.03508ZM20.4982 2.71748L10.2098 12.9796C10.1836 13.0059 10.1836 13.0059 10.1573 13.0321L9.57989 13.6095C9.42242 13.767 9.15996 13.767 9.00248 13.6095L4.80313 9.41019C4.64566 9.25272 4.64566 8.99026 4.80313 8.83278L5.38054 8.25537C5.53802 8.0979 5.80048 8.0979 5.95795 8.25537L9.31743 11.5886L19.3434 1.56265C19.5009 1.40518 19.7633 1.40518 19.9208 1.56265L20.4982 2.14007C20.6557 2.29754 20.6557 2.56 20.4982 2.71748Z" fill="black"/>
</svg>
