<svg width="112" height="112" viewBox="0 0 112 112" fill="none" xmlns="http://www.w3.org/2000/svg">
<path d="M58.3325 87.1461C59.6387 88.0778 59.6387 88.0778 60.6895 89.5031C60.9944 91.4517 60.9944 91.4517 61.0025 93.7475C61.0055 94.5765 61.0086 95.4054 61.0117 96.2595C61.0026 97.1249 60.9935 97.9903 60.9841 98.882C60.9932 99.7443 61.0023 100.607 61.0117 101.495C61.0087 102.325 61.0056 103.155 61.0025 104.01C60.9998 104.769 60.9972 105.527 60.9944 106.309C60.6448 108.659 59.8964 109.748 58.3325 111.502C55.6809 111.256 55.6809 111.256 52.8328 110.716C50.3855 107.045 51.0034 103.248 51.016 98.9311C51.0033 98.0621 50.9907 97.1931 50.9776 96.2979C50.9771 95.4654 50.9766 94.6329 50.9761 93.7751C50.9737 93.0125 50.9714 92.2499 50.969 91.4642C51.2615 89.5031 51.2615 89.5031 52.3105 88.076C54.3449 86.6296 55.9122 86.8436 58.3325 87.1461Z" fill="#76AED8"/>
<path d="M58.3325 0.720338C59.637 1.65197 59.637 1.65197 60.6895 3.07733C61.1948 6.17942 61.0534 9.31756 61.0332 12.4562C61.0489 13.3185 61.0646 14.1809 61.0808 15.0694C61.0802 15.8994 61.0797 16.7293 61.0792 17.5845C61.0807 18.343 61.0821 19.1015 61.0836 19.8829C60.5775 22.5155 59.6567 23.4672 57.5468 25.0759C55.0916 25.0268 55.0916 25.0268 52.8328 24.2902C50.3855 20.6192 51.0034 16.8218 51.016 12.5053C51.0033 11.6363 50.9907 10.7674 50.9776 9.87208C50.9771 9.03958 50.9766 8.20709 50.9761 7.34936C50.9737 6.58675 50.9714 5.82414 50.969 5.03841C51.2615 3.07733 51.2615 3.07733 52.3105 1.65024C54.3449 0.203862 55.9122 0.41781 58.3325 0.720338Z" fill="#1173BC"/>
<path d="M19.5929 15.2578C23.1835 15.7998 25.3268 17.6601 27.6951 20.3646C27.6951 20.8832 27.6951 21.4017 27.6951 21.9359C28.4729 22.1952 29.2507 22.4545 30.052 22.7216C32.1867 24.6006 33.9966 26.6241 35.5517 29.0069C35.6008 31.6585 35.6008 31.6585 34.766 33.7209C33.1947 35.2922 33.1947 35.2922 31.1507 35.7618C26.9606 35.0249 24.7979 32.3237 21.9008 29.3506C21.3225 28.7972 20.7442 28.2437 20.1484 27.6734C17.4521 24.9596 16.0326 23.5158 15.4375 19.6557C16.0301 16.6044 16.5126 15.8309 19.5929 15.2578Z" fill="#BBD5EA"/>
<path d="M31.158 76.4961C33.1989 76.9319 33.1989 76.9319 34.672 77.8649C35.8722 79.7985 35.7916 80.9663 35.5559 83.2172C34.4767 84.8046 34.4767 84.8046 32.9718 86.323C32.4259 86.874 31.88 87.4249 31.3176 87.9925C30.7393 88.5556 30.161 89.1187 29.5652 89.6989C29.0051 90.2742 28.4451 90.8494 27.8681 91.4421C25.4074 93.8801 23.6692 95.5675 20.3367 96.641C18.2713 96.5734 18.2713 96.5734 16.3563 95.2967C15.1287 93.4308 15.1287 93.4308 15.2785 91.5459C16.4193 87.8796 19.2803 85.6218 21.9541 82.9717C22.5106 82.3898 23.0671 81.808 23.6405 81.2085C27.7974 77.044 27.7974 77.044 31.158 76.4961Z" fill="#8BBADD"/>
<path d="M94.4765 15.6471C96.0478 17.2185 96.0478 17.2185 96.5204 19.6522C95.8221 24.1825 93.2852 26.2575 90.0571 29.3471C89.4971 29.9219 88.937 30.4966 88.36 31.0888C84.2044 35.1719 84.2044 35.1719 80.801 35.7183C78.7632 35.2887 78.7632 35.2887 77.2901 34.3557C76.0855 32.4149 76.1592 31.2637 76.4062 29.0034C78.199 26.3997 80.537 24.2899 82.7898 22.0797C83.3873 21.4604 83.9848 20.8411 84.6005 20.2031C85.4816 19.3257 85.4816 19.3257 86.3805 18.4307C86.9153 17.8962 87.4502 17.3616 88.0013 16.8109C90.3031 15.2899 91.7702 15.3189 94.4765 15.6471Z" fill="#2A83C1"/>
<path d="M83.48 76.9276C85.9386 78.6491 87.97 80.7244 90.0599 82.8692C90.6382 83.4226 91.2165 83.9761 91.8123 84.5464C94.4999 87.2514 95.9199 88.7301 96.5724 92.5641C96.0506 94.9978 96.0506 94.9978 93.6936 96.5691C91.2254 96.9218 90.1582 96.8426 88.0933 95.4054C87.5543 94.8709 87.0153 94.3363 86.46 93.7856C85.8701 93.2007 85.2801 92.6158 84.6723 92.0132C84.0682 91.3939 83.4641 90.7746 82.8417 90.1365C82.2224 89.5324 81.6031 88.9283 80.965 88.3059C80.3801 87.7159 79.7952 87.126 79.1926 86.5182C78.6581 85.9792 78.1235 85.4402 77.5728 84.8849C76.1499 82.8406 76.1059 81.7268 76.4091 79.2846C78.2132 76.378 80.2715 76.4125 83.48 76.9276Z" fill="#5B9FCD"/>
<path d="M7.12124 51.5786C8.0307 51.5766 8.94017 51.5745 9.87719 51.5724C10.8312 51.5785 11.7852 51.5846 12.7682 51.5909C13.7222 51.5848 14.6762 51.5787 15.6592 51.5724C17.0234 51.5755 17.0234 51.5755 18.4151 51.5786C19.2527 51.5803 20.0903 51.5821 20.9532 51.5839C22.9818 51.7873 22.9818 51.7873 24.5531 53.3586C24.7986 56.1084 24.7986 56.1084 24.5531 58.8582C21.8717 60.6459 20.8752 60.6313 17.7246 60.6382C16.4174 60.6413 16.4174 60.6413 15.0837 60.6444C14.1738 60.6383 13.2638 60.6322 12.3263 60.626C11.4132 60.632 10.5002 60.6381 9.55955 60.6444C8.68908 60.6424 7.8186 60.6403 6.92175 60.6382C6.12211 60.6365 5.32246 60.6347 4.49859 60.6329C2.55457 60.4296 2.55457 60.4296 0.983249 58.8582C0.786834 56.1084 0.786834 56.1084 0.983249 53.3586C3.09265 51.2492 4.17679 51.5848 7.12124 51.5786Z" fill="#9FC6E2"/>
<path d="M93.547 51.5786C94.4565 51.5766 95.366 51.5745 96.303 51.5724C97.257 51.5785 98.211 51.5846 99.194 51.5909C100.148 51.5848 101.102 51.5787 102.085 51.5724C103.449 51.5755 103.449 51.5755 104.841 51.5786C105.678 51.5803 106.516 51.5821 107.379 51.5839C109.408 51.7873 109.408 51.7873 110.979 53.3586C111.224 56.1084 111.224 56.1084 110.979 58.8582C107.22 61.364 103.17 60.6874 98.752 60.6751C97.3825 60.6941 97.3825 60.6941 95.9853 60.7134C94.6796 60.7142 94.6796 60.7142 93.3475 60.715C92.5479 60.7173 91.7482 60.7197 90.9244 60.7221C89.9621 60.5773 89.9621 60.5773 88.9804 60.4296C87.172 57.7171 87.1381 56.5426 87.409 53.3586C89.5184 51.2492 90.6026 51.5848 93.547 51.5786Z" fill="#4090C6"/>
<path d="M58.3325 0.722038C58.3325 0.981307 58.3325 1.24058 58.3325 1.5077C57.0361 1.76697 55.7398 2.02624 54.4042 2.29336C53.4954 6.60091 53.5288 10.7812 53.5694 15.1586C53.5729 15.8868 53.5765 16.6149 53.5801 17.3652C53.5893 19.1504 53.6022 20.9355 53.6185 22.7206C55.4334 22.7206 57.2483 22.7206 59.1181 22.7206C59.1181 15.9796 59.1181 9.23862 59.1181 2.29336C59.6367 2.55263 60.1552 2.8119 60.6895 3.07903C60.7807 6.15601 60.8366 9.23264 60.8859 12.3106C60.9122 13.1836 60.9385 14.0566 60.9657 14.956C60.9758 15.7966 60.9859 16.6372 60.9964 17.5033C61.0128 18.2768 61.0293 19.0503 61.0462 19.8472C60.5883 22.5266 59.6902 23.4548 57.5468 25.0776C55.0916 25.0285 55.0916 25.0285 52.8328 24.2919C50.3855 20.6209 51.0034 16.8235 51.016 12.507C51.0033 11.638 50.9907 10.7691 50.9776 9.87378C50.9771 9.04128 50.9766 8.20879 50.9761 7.35107C50.9737 6.58845 50.9714 5.82584 50.969 5.04011C51.2615 3.07903 51.2615 3.07903 52.3013 1.64274C54.2704 0.266388 56.0001 0.566547 58.3325 0.722038Z" fill="#3E7EB8"/>
<path d="M77.9774 27.4336C79.0415 29.5618 78.8141 31.3692 78.7631 33.7189C80.3187 33.7189 81.8743 33.7189 83.477 33.7189C83.477 34.2374 83.477 34.756 83.477 35.2902C79.212 35.5746 79.212 35.5746 77.2899 34.3572C76.1049 32.448 76.1231 31.2125 76.4061 29.0049C76.9246 28.4864 77.4432 27.9678 77.9774 27.4336Z" fill="#478AB8"/>
</svg>
