<svg width="375" height="166" viewBox="0 0 375 166" fill="none" xmlns="http://www.w3.org/2000/svg">
<g clip-path="url(#clip0_727_4791)" filter="url(#filter0_d_727_4791)">
<rect width="375" height="107" transform="translate(0 59)" fill="white"/>
<path d="M34.8984 82H52.8984" stroke="#2E5579" stroke-width="1.5" stroke-linecap="round"/>
<path d="M34.8984 87H52.8984" stroke="#2E5579" stroke-width="1.5" stroke-linecap="round"/>
<path d="M34.8984 92H52.8984" stroke="#2E5579" stroke-width="1.5" stroke-linecap="round"/>
<path d="M35.1858 121.502C35.3725 121.502 35.4658 121.749 35.4658 122.244C35.4658 122.748 35.3725 123 35.1858 123H34.0938C33.2072 123 32.5165 122.799 32.0218 122.398C30.8365 122.799 29.5158 123 28.0598 123C27.1452 123 26.2585 122.911 25.3998 122.734V121.194C26.2492 121.399 27.1405 121.502 28.0738 121.502C29.2032 121.502 30.2345 121.357 31.1678 121.068C31.1305 120.993 31.0465 120.765 30.9158 120.382L29.1518 115.272L30.6638 114.796L32.4278 119.906C32.6052 120.438 32.7498 120.807 32.8618 121.012C32.9738 121.208 33.1092 121.339 33.2678 121.404C33.4358 121.46 33.7112 121.488 34.0938 121.488H35.1858V121.502ZM38.2835 116.196V123H35.1895C35.0028 123 34.9095 122.748 34.9095 122.244C34.9095 121.749 35.0028 121.502 35.1895 121.502H36.6735V116.196H38.2835ZM38.5915 125.842C38.3488 125.842 38.1435 125.758 37.9755 125.59C37.8168 125.422 37.7375 125.212 37.7375 124.96C37.7375 124.699 37.8168 124.484 37.9755 124.316C38.1435 124.157 38.3488 124.078 38.5915 124.078C38.8341 124.078 39.0348 124.157 39.1935 124.316C39.3615 124.484 39.4455 124.699 39.4455 124.96C39.4455 125.212 39.3615 125.422 39.1935 125.59C39.0348 125.758 38.8341 125.842 38.5915 125.842ZM36.3795 125.842C36.1368 125.842 35.9315 125.758 35.7635 125.59C35.6048 125.422 35.5255 125.212 35.5255 124.96C35.5255 124.699 35.6048 124.484 35.7635 124.316C35.9315 124.157 36.1368 124.078 36.3795 124.078C36.6221 124.078 36.8228 124.157 36.9815 124.316C37.1495 124.484 37.2335 124.699 37.2335 124.96C37.2335 125.212 37.1495 125.422 36.9815 125.59C36.8228 125.758 36.6221 125.842 36.3795 125.842ZM44.4689 121.502C44.6556 121.502 44.7489 121.749 44.7489 122.244C44.7489 122.748 44.6556 123 44.4689 123H42.9289V123.028C42.9289 124.008 42.6629 124.773 42.1309 125.324C41.5989 125.875 40.8663 126.159 39.9329 126.178L39.6809 124.666C40.2596 124.703 40.6749 124.591 40.9269 124.33C41.1883 124.078 41.3189 123.644 41.3189 123.028V116.196H42.9289V121.502H44.4689ZM42.1169 115.202C41.8463 115.202 41.6223 115.109 41.4449 114.922C41.2676 114.735 41.1789 114.502 41.1789 114.222C41.1789 113.942 41.2676 113.713 41.4449 113.536C41.6223 113.349 41.8463 113.256 42.1169 113.256C42.3876 113.256 42.6116 113.349 42.7889 113.536C42.9663 113.713 43.0549 113.942 43.0549 114.222C43.0549 114.502 42.9663 114.735 42.7889 114.922C42.6116 115.109 42.3876 115.202 42.1169 115.202ZM55.0147 121.502C55.2013 121.502 55.2947 121.749 55.2947 122.244C55.2947 122.748 55.2013 123 55.0147 123H54.9167C54.0207 123 53.302 122.757 52.7607 122.272C52.154 122.515 51.5193 122.697 50.8567 122.818C50.2033 122.939 49.606 123 49.0647 123C48.1687 123 47.296 122.809 46.4467 122.426C45.98 122.809 45.3873 123 44.6687 123H44.4727C44.286 123 44.1927 122.748 44.1927 122.244C44.1927 121.749 44.286 121.502 44.4727 121.502H44.6687C44.9673 121.502 45.2007 121.432 45.3687 121.292C45.546 121.143 45.658 120.909 45.7047 120.592L45.7467 120.228C45.8307 119.491 45.9473 118.8 46.0967 118.156C46.2553 117.512 46.554 116.919 46.9927 116.378C47.4407 115.827 48.0567 115.552 48.8407 115.552C49.5313 115.552 50.1847 115.781 50.8007 116.238C51.4167 116.686 51.93 117.311 52.3407 118.114C52.7513 118.917 53.008 119.813 53.1107 120.802C53.372 121.269 53.8293 121.502 54.4827 121.502H55.0147ZM47.2587 121.096C47.8373 121.367 48.444 121.502 49.0787 121.502C49.8253 121.502 50.642 121.367 51.5287 121.096C51.4633 120.377 51.2953 119.71 51.0247 119.094C50.754 118.469 50.4273 117.974 50.0447 117.61C49.6713 117.237 49.2933 117.05 48.9107 117.05C48.5467 117.05 48.2573 117.218 48.0427 117.554C47.8373 117.881 47.6927 118.259 47.6087 118.688C47.5247 119.117 47.45 119.626 47.3847 120.214L47.3007 120.886L47.2587 121.096ZM57.7017 112.626V123H55.0137C54.827 123 54.7337 122.748 54.7337 122.244C54.7337 121.749 54.827 121.502 55.0137 121.502H56.0917V112.626H57.7017ZM60.0881 112.626H61.6981V123H60.0881V112.626Z" fill="#2E5579"/>
<path d="M125.699 81.25V86.35C125.699 87.62 125.279 88.69 124.529 89.43C123.789 90.18 122.719 90.6 121.449 90.6V92.41C121.449 93.09 120.689 93.5 120.129 93.12L119.159 92.48C119.249 92.17 119.289 91.83 119.289 91.47V87.4C119.289 85.36 117.929 84 115.889 84H109.099C108.959 84 108.829 84.01 108.699 84.02V81.25C108.699 78.7 110.399 77 112.949 77H121.449C123.999 77 125.699 78.7 125.699 81.25Z" stroke="#ABB3C8" stroke-width="1.5" stroke-miterlimit="10" stroke-linecap="round" stroke-linejoin="round"/>
<path d="M119.289 87.4V91.47C119.289 91.83 119.249 92.17 119.159 92.48C118.789 93.95 117.569 94.87 115.889 94.87H113.169L110.149 96.88C109.699 97.19 109.099 96.86 109.099 96.32V94.87C108.079 94.87 107.229 94.53 106.639 93.94C106.039 93.34 105.699 92.49 105.699 91.47V87.4C105.699 85.5 106.879 84.19 108.699 84.02C108.829 84.01 108.959 84 109.099 84H115.889C117.929 84 119.289 85.36 119.289 87.4Z" stroke="#ABB3C8" stroke-width="1.5" stroke-miterlimit="10" stroke-linecap="round" stroke-linejoin="round"/>
<path d="M96.2561 116.196V123L88.4441 123.014C87.4734 123.014 86.7174 122.739 86.1761 122.188C85.6347 121.637 85.3641 120.881 85.3641 119.92C85.3641 119.295 85.4854 118.744 85.7281 118.268C85.9707 117.783 86.3207 117.344 86.7781 116.952L88.0521 117.848C87.6787 118.175 87.4034 118.506 87.2261 118.842C87.0581 119.169 86.9741 119.523 86.9741 119.906C86.9741 120.391 87.1141 120.779 87.3941 121.068C87.6741 121.357 88.0661 121.502 88.5701 121.502H94.6461V116.196H96.2561ZM92.1261 115.216C91.8834 115.216 91.6781 115.132 91.5101 114.964C91.3514 114.796 91.2721 114.586 91.2721 114.334C91.2721 114.073 91.3514 113.863 91.5101 113.704C91.6781 113.536 91.8834 113.452 92.1261 113.452C92.3687 113.452 92.5694 113.536 92.7281 113.704C92.8961 113.863 92.9801 114.073 92.9801 114.334C92.9801 114.586 92.8961 114.796 92.7281 114.964C92.5694 115.132 92.3687 115.216 92.1261 115.216ZM89.9141 115.216C89.6714 115.216 89.4661 115.132 89.2981 114.964C89.1394 114.796 89.0601 114.586 89.0601 114.334C89.0601 114.073 89.1394 113.863 89.2981 113.704C89.4661 113.536 89.6714 113.452 89.9141 113.452C90.1567 113.452 90.3574 113.536 90.5161 113.704C90.6841 113.863 90.7681 114.073 90.7681 114.334C90.7681 114.586 90.6841 114.796 90.5161 114.964C90.3574 115.132 90.1567 115.216 89.9141 115.216ZM101.778 121.502C101.965 121.502 102.058 121.749 102.058 122.244C102.058 122.748 101.965 123 101.778 123H98.5022V112.626H100.112V121.502H101.778ZM104.875 116.196V123H101.781C101.595 123 101.501 122.748 101.501 122.244C101.501 121.749 101.595 121.502 101.781 121.502H103.265V116.196H104.875ZM104.077 111.716C104.311 111.716 104.497 111.795 104.637 111.954C104.787 112.103 104.861 112.299 104.861 112.542C104.861 112.775 104.787 112.967 104.637 113.116C104.497 113.265 104.311 113.34 104.077 113.34C103.844 113.34 103.653 113.265 103.503 113.116C103.363 112.967 103.293 112.775 103.293 112.542C103.293 112.299 103.363 112.103 103.503 111.954C103.653 111.795 103.844 111.716 104.077 111.716ZM102.971 113.508C103.214 113.508 103.415 113.592 103.573 113.76C103.741 113.928 103.825 114.138 103.825 114.39C103.825 114.651 103.741 114.866 103.573 115.034C103.415 115.193 103.214 115.272 102.971 115.272C102.729 115.272 102.523 115.188 102.355 115.02C102.197 114.852 102.117 114.642 102.117 114.39C102.117 114.138 102.197 113.928 102.355 113.76C102.523 113.592 102.729 113.508 102.971 113.508ZM105.183 113.508C105.426 113.508 105.627 113.592 105.785 113.76C105.953 113.928 106.037 114.138 106.037 114.39C106.037 114.651 105.953 114.866 105.785 115.034C105.627 115.193 105.426 115.272 105.183 115.272C104.941 115.272 104.735 115.188 104.567 115.02C104.409 114.852 104.329 114.642 104.329 114.39C104.329 114.138 104.409 113.928 104.567 113.76C104.735 113.592 104.941 113.508 105.183 113.508ZM108.305 114.81C109.397 115.062 110.349 115.529 111.161 116.21C111.973 116.891 112.599 117.741 113.037 118.758C113.476 119.766 113.7 120.891 113.709 122.132C112.365 122.711 110.821 123 109.075 123C108.161 123 107.274 122.911 106.415 122.734V121.194C107.265 121.399 108.156 121.502 109.089 121.502C110.144 121.502 111.124 121.376 112.029 121.124C111.852 119.883 111.413 118.833 110.713 117.974C110.013 117.106 109.089 116.537 107.941 116.266L108.305 114.81ZM118.95 121.502C119.137 121.502 119.23 121.749 119.23 122.244C119.23 122.748 119.137 123 118.95 123H115.674V112.626H117.284V121.502H118.95ZM128.249 121.502C128.436 121.502 128.529 121.749 128.529 122.244C128.529 122.748 128.436 123 128.249 123H118.953C118.766 123 118.673 122.748 118.673 122.244C118.673 121.749 118.766 121.502 118.953 121.502H124.511V119.374C124.511 118.665 124.282 118.1 123.825 117.68C123.377 117.26 122.775 117.05 122.019 117.05C121.188 117.05 120.414 117.307 119.695 117.82L118.995 116.448C119.91 115.851 120.918 115.552 122.019 115.552C122.812 115.552 123.517 115.715 124.133 116.042C124.758 116.369 125.244 116.821 125.589 117.4C125.944 117.979 126.121 118.637 126.121 119.374V121.502H128.249ZM138.792 121.502C138.979 121.502 139.072 121.749 139.072 122.244C139.072 122.748 138.979 123 138.792 123H138.694C137.798 123 137.079 122.757 136.538 122.272C135.931 122.515 135.297 122.697 134.634 122.818C133.981 122.939 133.383 123 132.842 123C131.946 123 131.073 122.809 130.224 122.426C129.757 122.809 129.165 123 128.446 123H128.25C128.063 123 127.97 122.748 127.97 122.244C127.97 121.749 128.063 121.502 128.25 121.502H128.446C128.745 121.502 128.978 121.432 129.146 121.292C129.323 121.143 129.435 120.909 129.482 120.592L129.524 120.228C129.608 119.491 129.725 118.8 129.874 118.156C130.033 117.512 130.331 116.919 130.77 116.378C131.218 115.827 131.834 115.552 132.618 115.552C133.309 115.552 133.962 115.781 134.578 116.238C135.194 116.686 135.707 117.311 136.118 118.114C136.529 118.917 136.785 119.813 136.888 120.802C137.149 121.269 137.607 121.502 138.26 121.502H138.792ZM131.036 121.096C131.615 121.367 132.221 121.502 132.856 121.502C133.603 121.502 134.419 121.367 135.306 121.096C135.241 120.377 135.073 119.71 134.802 119.094C134.531 118.469 134.205 117.974 133.822 117.61C133.449 117.237 133.071 117.05 132.688 117.05C132.324 117.05 132.035 117.218 131.82 117.554C131.615 117.881 131.47 118.259 131.386 118.688C131.302 119.117 131.227 119.626 131.162 120.214L131.078 120.886L131.036 121.096ZM141.479 112.626V123H138.791C138.604 123 138.511 122.748 138.511 122.244C138.511 121.749 138.604 121.502 138.791 121.502H139.869V112.626H141.479ZM143.865 112.626H145.475V123H143.865V112.626Z" fill="#ABB3C8"/>
<path d="M259.917 95.8116C259.577 95.9316 259.017 95.9316 258.677 95.8116C255.777 94.8216 249.297 90.6916 249.297 83.6916C249.297 80.6016 251.787 78.1016 254.857 78.1016C256.677 78.1016 258.287 78.9816 259.297 80.3416C260.307 78.9816 261.927 78.1016 263.737 78.1016C266.807 78.1016 269.297 80.6016 269.297 83.6916C269.297 90.6916 262.817 94.8216 259.917 95.8116Z" stroke="#ABB3C8" stroke-width="1.5" stroke-linecap="round" stroke-linejoin="round"/>
<path d="M239.427 121.502C239.613 121.502 239.707 121.749 239.707 122.244C239.707 122.748 239.613 123 239.427 123H239.133C237.985 123 237.196 122.669 236.767 122.006C236.431 122.165 236.067 122.295 235.675 122.398C235.283 122.491 234.905 122.538 234.541 122.538C233.878 122.538 233.267 122.389 232.707 122.09C232.147 121.782 231.699 121.367 231.363 120.844C231.036 120.312 230.873 119.733 230.873 119.108C230.873 118.473 231.036 117.895 231.363 117.372C231.699 116.849 232.147 116.434 232.707 116.126C233.267 115.818 233.873 115.664 234.527 115.664H236.333V115.314H237.943V120.158C237.943 120.653 238.036 121.003 238.222 121.208C238.409 121.404 238.755 121.502 239.259 121.502H239.427ZM234.583 121.026C235.161 121.026 235.749 120.858 236.347 120.522C236.337 120.447 236.333 120.331 236.333 120.172V117.162H234.527C234.153 117.162 233.808 117.251 233.491 117.428C233.183 117.596 232.935 117.829 232.749 118.128C232.571 118.427 232.483 118.753 232.483 119.108C232.483 119.463 232.571 119.785 232.749 120.074C232.926 120.363 233.173 120.597 233.491 120.774C233.817 120.942 234.181 121.026 234.583 121.026ZM235.647 114.642C235.404 114.642 235.199 114.558 235.031 114.39C234.872 114.222 234.793 114.012 234.793 113.76C234.793 113.499 234.872 113.289 235.031 113.13C235.199 112.962 235.404 112.878 235.647 112.878C235.889 112.878 236.09 112.962 236.249 113.13C236.417 113.289 236.501 113.499 236.501 113.76C236.501 114.012 236.417 114.222 236.249 114.39C236.09 114.558 235.889 114.642 235.647 114.642ZM233.435 114.642C233.192 114.642 232.987 114.558 232.819 114.39C232.66 114.222 232.581 114.012 232.581 113.76C232.581 113.499 232.66 113.289 232.819 113.13C232.987 112.962 233.192 112.878 233.435 112.878C233.677 112.878 233.878 112.962 234.037 113.13C234.205 113.289 234.289 113.499 234.289 113.76C234.289 114.012 234.205 114.222 234.037 114.39C233.878 114.558 233.677 114.642 233.435 114.642ZM243.688 121.502C243.874 121.502 243.968 121.749 243.968 122.244C243.968 122.748 243.874 123 243.688 123H239.432C239.245 123 239.152 122.748 239.152 122.244C239.152 121.749 239.245 121.502 239.432 121.502H240.51V112.626H242.12V121.502H243.688ZM260.344 121.502C260.53 121.502 260.624 121.749 260.624 122.244C260.624 122.748 260.53 123 260.344 123H248.444C247.594 123 246.918 122.799 246.414 122.398C245.956 122.799 245.28 123 244.384 123H243.684C243.497 123 243.404 122.748 243.404 122.244C243.404 121.749 243.497 121.502 243.684 121.502H244.258C244.762 121.502 245.107 121.404 245.294 121.208C245.48 121.003 245.574 120.653 245.574 120.158V116.882H247.184V120.172C247.184 120.583 247.142 120.951 247.058 121.278C247.328 121.427 247.702 121.502 248.178 121.502H248.192C248.369 120.606 248.7 119.733 249.186 118.884C249.671 118.025 250.324 117.316 251.146 116.756C251.976 116.187 252.947 115.902 254.058 115.902C254.982 115.902 255.761 116.107 256.396 116.518C257.03 116.919 257.502 117.465 257.81 118.156C258.118 118.847 258.272 119.612 258.272 120.452V121.502H260.344ZM254.1 117.4C253.428 117.4 252.793 117.582 252.196 117.946C251.598 118.31 251.09 118.809 250.67 119.444C250.25 120.069 249.96 120.755 249.802 121.502H256.662V120.452C256.662 119.472 256.433 118.721 255.976 118.198C255.518 117.666 254.893 117.4 254.1 117.4ZM254.1 114.642C253.829 114.642 253.605 114.549 253.428 114.362C253.25 114.175 253.162 113.942 253.162 113.662C253.162 113.382 253.25 113.153 253.428 112.976C253.605 112.789 253.829 112.696 254.1 112.696C254.37 112.696 254.594 112.789 254.772 112.976C254.949 113.153 255.038 113.382 255.038 113.662C255.038 113.942 254.949 114.175 254.772 114.362C254.594 114.549 254.37 114.642 254.1 114.642ZM269.8 121.502C269.986 121.502 270.08 121.749 270.08 122.244C270.08 122.748 269.986 123 269.8 123H260.35C260.163 123 260.07 122.748 260.07 122.244C260.07 121.749 260.163 121.502 260.35 121.502H262.044C261.624 120.905 261.414 120.233 261.414 119.486C261.414 118.786 261.586 118.156 261.932 117.596C262.277 117.027 262.748 116.583 263.346 116.266C263.943 115.939 264.596 115.776 265.306 115.776C266.202 115.776 267.163 116.033 268.19 116.546V121.502H269.8ZM263.024 119.472C263.024 119.985 263.168 120.424 263.458 120.788C263.756 121.143 264.158 121.381 264.662 121.502H266.58V117.498C266.104 117.349 265.684 117.274 265.32 117.274C264.881 117.274 264.484 117.372 264.13 117.568C263.784 117.755 263.514 118.016 263.318 118.352C263.122 118.688 263.024 119.061 263.024 119.472ZM265.32 114.586C265.049 114.586 264.825 114.493 264.648 114.306C264.47 114.119 264.382 113.886 264.382 113.606C264.382 113.326 264.47 113.097 264.648 112.92C264.825 112.733 265.049 112.64 265.32 112.64C265.59 112.64 265.814 112.733 265.992 112.92C266.169 113.097 266.258 113.326 266.258 113.606C266.258 113.886 266.169 114.119 265.992 114.306C265.814 114.493 265.59 114.586 265.32 114.586ZM273.703 113.07C273.479 113.07 273.218 113.047 272.919 113C272.621 112.953 272.35 112.883 272.107 112.79L272.331 112.09C272.518 112.155 272.742 112.211 273.003 112.258C273.265 112.305 273.498 112.328 273.703 112.328C273.946 112.328 274.189 112.291 274.431 112.216C274.086 111.908 273.913 111.558 273.913 111.166C273.913 110.839 274.021 110.559 274.235 110.326C274.459 110.083 274.735 109.962 275.061 109.962C275.36 109.962 275.607 110.065 275.803 110.27C276.009 110.475 276.111 110.765 276.111 111.138C276.111 111.521 275.995 111.861 275.761 112.16C275.528 112.449 275.225 112.673 274.851 112.832C274.478 112.991 274.095 113.07 273.703 113.07ZM275.089 111.824C275.304 111.609 275.411 111.371 275.411 111.11C275.411 110.839 275.299 110.704 275.075 110.704C274.945 110.704 274.833 110.751 274.739 110.844C274.655 110.928 274.613 111.035 274.613 111.166C274.613 111.409 274.772 111.628 275.089 111.824ZM280.339 121.502C280.526 121.502 280.619 121.749 280.619 122.244C280.619 122.748 280.526 123 280.339 123H280.241C279.345 123 278.626 122.757 278.085 122.272C277.478 122.515 276.844 122.697 276.181 122.818C275.528 122.939 274.93 123 274.389 123C273.493 123 272.62 122.809 271.771 122.426C271.304 122.809 270.712 123 269.993 123H269.797C269.61 123 269.517 122.748 269.517 122.244C269.517 121.749 269.61 121.502 269.797 121.502H269.993C270.292 121.502 270.525 121.432 270.693 121.292C270.87 121.143 270.982 120.909 271.029 120.592L271.071 120.228C271.155 119.491 271.272 118.8 271.421 118.156C271.58 117.512 271.878 116.919 272.317 116.378C272.765 115.827 273.381 115.552 274.165 115.552C274.856 115.552 275.509 115.781 276.125 116.238C276.741 116.686 277.254 117.311 277.665 118.114C278.076 118.917 278.332 119.813 278.435 120.802C278.696 121.269 279.154 121.502 279.807 121.502H280.339ZM272.583 121.096C273.162 121.367 273.768 121.502 274.403 121.502C275.15 121.502 275.966 121.367 276.853 121.096C276.788 120.377 276.62 119.71 276.349 119.094C276.078 118.469 275.752 117.974 275.369 117.61C274.996 117.237 274.618 117.05 274.235 117.05C273.871 117.05 273.582 117.218 273.367 117.554C273.162 117.881 273.017 118.259 272.933 118.688C272.849 119.117 272.774 119.626 272.709 120.214L272.625 120.886L272.583 121.096ZM283.026 112.626V123H280.338C280.151 123 280.058 122.748 280.058 122.244C280.058 121.749 280.151 121.502 280.338 121.502H281.416V112.626H283.026ZM285.412 112.626H287.022V123H285.412V112.626Z" fill="#ABB3C8"/>
<rect width="24" height="24" transform="translate(319.098 75)" fill="white"/>
<path d="M331.098 93V90V93Z" fill="#ABB3C8"/>
<path d="M331.098 93V90" stroke="#ABB3C8" stroke-width="1.5" stroke-linecap="round" stroke-linejoin="round"/>
<path d="M329.167 77.8198L322.237 83.3698C321.457 83.9898 320.957 85.2998 321.127 86.2798L322.457 94.2398C322.697 95.6598 324.057 96.8098 325.497 96.8098H336.697C338.127 96.8098 339.497 95.6498 339.737 94.2398L341.067 86.2798C341.227 85.2998 340.727 83.9898 339.957 83.3698L333.027 77.8298C331.957 76.9698 330.227 76.9698 329.167 77.8198Z" stroke="#ABB3C8" stroke-width="1.5" stroke-linecap="round" stroke-linejoin="round"/>
<path d="M315.479 121.502C315.666 121.502 315.759 121.749 315.759 122.244C315.759 122.748 315.666 123 315.479 123H315.185C314.037 123 313.249 122.669 312.819 122.006C312.483 122.165 312.119 122.295 311.727 122.398C311.335 122.491 310.957 122.538 310.593 122.538C309.931 122.538 309.319 122.389 308.759 122.09C308.199 121.782 307.751 121.367 307.415 120.844C307.089 120.312 306.925 119.733 306.925 119.108C306.925 118.473 307.089 117.895 307.415 117.372C307.751 116.849 308.199 116.434 308.759 116.126C309.319 115.818 309.926 115.664 310.579 115.664H312.385V115.314H313.995V120.158C313.995 120.653 314.089 121.003 314.275 121.208C314.462 121.404 314.807 121.502 315.311 121.502H315.479ZM310.635 121.026C311.214 121.026 311.802 120.858 312.399 120.522C312.39 120.447 312.385 120.331 312.385 120.172V117.162H310.579C310.206 117.162 309.861 117.251 309.543 117.428C309.235 117.596 308.988 117.829 308.801 118.128C308.624 118.427 308.535 118.753 308.535 119.108C308.535 119.463 308.624 119.785 308.801 120.074C308.979 120.363 309.226 120.597 309.543 120.774C309.87 120.942 310.234 121.026 310.635 121.026ZM311.699 114.642C311.457 114.642 311.251 114.558 311.083 114.39C310.925 114.222 310.845 114.012 310.845 113.76C310.845 113.499 310.925 113.289 311.083 113.13C311.251 112.962 311.457 112.878 311.699 112.878C311.942 112.878 312.143 112.962 312.301 113.13C312.469 113.289 312.553 113.499 312.553 113.76C312.553 114.012 312.469 114.222 312.301 114.39C312.143 114.558 311.942 114.642 311.699 114.642ZM309.487 114.642C309.245 114.642 309.039 114.558 308.871 114.39C308.713 114.222 308.633 114.012 308.633 113.76C308.633 113.499 308.713 113.289 308.871 113.13C309.039 112.962 309.245 112.878 309.487 112.878C309.73 112.878 309.931 112.962 310.089 113.13C310.257 113.289 310.341 113.499 310.341 113.76C310.341 114.012 310.257 114.222 310.089 114.39C309.931 114.558 309.73 114.642 309.487 114.642ZM320.958 121.502C321.145 121.502 321.238 121.749 321.238 122.244C321.238 122.748 321.145 123 320.958 123H320.188C319.395 123 318.742 122.799 318.228 122.398C317.79 122.799 317.113 123 316.198 123H315.484C315.298 123 315.204 122.748 315.204 122.244C315.204 121.749 315.298 121.502 315.484 121.502H316.072C316.576 121.502 316.922 121.404 317.108 121.208C317.295 121.003 317.388 120.653 317.388 120.158V116.196H318.998V120.172C318.998 120.592 318.956 120.965 318.872 121.292C319.115 121.432 319.409 121.502 319.754 121.502H320.958ZM319.306 125.842C319.064 125.842 318.858 125.758 318.69 125.59C318.532 125.422 318.452 125.212 318.452 124.96C318.452 124.699 318.532 124.484 318.69 124.316C318.858 124.157 319.064 124.078 319.306 124.078C319.549 124.078 319.75 124.157 319.908 124.316C320.076 124.484 320.16 124.699 320.16 124.96C320.16 125.212 320.076 125.422 319.908 125.59C319.75 125.758 319.549 125.842 319.306 125.842ZM317.094 125.842C316.852 125.842 316.646 125.758 316.478 125.59C316.32 125.422 316.24 125.212 316.24 124.96C316.24 124.699 316.32 124.484 316.478 124.316C316.646 124.157 316.852 124.078 317.094 124.078C317.337 124.078 317.538 124.157 317.696 124.316C317.864 124.484 317.948 124.699 317.948 124.96C317.948 125.212 317.864 125.422 317.696 125.59C317.538 125.758 317.337 125.842 317.094 125.842ZM334.393 121.502C334.58 121.502 334.673 121.749 334.673 122.244C334.673 122.748 334.58 123 334.393 123H333.623C332.83 123 332.176 122.799 331.663 122.398C331.224 122.799 330.571 123 329.703 123C328.854 123 328.177 122.799 327.673 122.398C327.234 122.799 326.581 123 325.713 123C324.864 123 324.187 122.799 323.683 122.398C323.226 122.799 322.549 123 321.653 123H320.953C320.766 123 320.673 122.748 320.673 122.244C320.673 121.749 320.766 121.502 320.953 121.502H321.527C322.031 121.502 322.376 121.404 322.563 121.208C322.75 121.003 322.843 120.653 322.843 120.158V117.582H324.453V120.172C324.453 120.583 324.411 120.951 324.327 121.278C324.598 121.427 324.971 121.502 325.447 121.502C325.988 121.502 326.352 121.404 326.539 121.208C326.735 121.012 326.833 120.662 326.833 120.158V116.882H328.443V120.172C328.443 120.583 328.401 120.951 328.317 121.278C328.588 121.427 328.961 121.502 329.437 121.502C329.978 121.502 330.342 121.404 330.529 121.208C330.725 121.012 330.823 120.662 330.823 120.158V116.182H332.433V120.172C332.433 120.583 332.391 120.956 332.307 121.292C332.54 121.432 332.834 121.502 333.189 121.502H334.393ZM339.867 121.502C340.053 121.502 340.147 121.749 340.147 122.244C340.147 122.748 340.053 123 339.867 123H339.097C338.303 123 337.65 122.799 337.137 122.398C336.698 122.799 336.021 123 335.107 123H334.393C334.206 123 334.113 122.748 334.113 122.244C334.113 121.749 334.206 121.502 334.393 121.502H334.981C335.485 121.502 335.83 121.404 336.017 121.208C336.203 121.003 336.297 120.653 336.297 120.158V116.196H337.907V120.172C337.907 120.592 337.865 120.965 337.781 121.292C338.023 121.432 338.317 121.502 338.663 121.502H339.867ZM338.215 125.842C337.972 125.842 337.767 125.758 337.599 125.59C337.44 125.422 337.361 125.212 337.361 124.96C337.361 124.699 337.44 124.484 337.599 124.316C337.767 124.157 337.972 124.078 338.215 124.078C338.457 124.078 338.658 124.157 338.817 124.316C338.985 124.484 339.069 124.699 339.069 124.96C339.069 125.212 338.985 125.422 338.817 125.59C338.658 125.758 338.457 125.842 338.215 125.842ZM336.003 125.842C335.76 125.842 335.555 125.758 335.387 125.59C335.228 125.422 335.149 125.212 335.149 124.96C335.149 124.699 335.228 124.484 335.387 124.316C335.555 124.157 335.76 124.078 336.003 124.078C336.245 124.078 336.446 124.157 336.605 124.316C336.773 124.484 336.857 124.699 336.857 124.96C336.857 125.212 336.773 125.422 336.605 125.59C336.446 125.758 336.245 125.842 336.003 125.842ZM342.955 116.196V123H339.861C339.675 123 339.581 122.748 339.581 122.244C339.581 121.749 339.675 121.502 339.861 121.502H341.345V116.196H342.955ZM343.585 114.264V115.23H340.715V114.264H340.995C340.921 114.087 340.883 113.909 340.883 113.732C340.883 113.349 341.023 113.041 341.303 112.808C341.583 112.565 341.938 112.444 342.367 112.444C342.554 112.444 342.745 112.467 342.941 112.514C343.147 112.551 343.319 112.603 343.459 112.668L343.039 113.55C342.965 113.513 342.867 113.48 342.745 113.452C342.624 113.424 342.507 113.41 342.395 113.41C342.218 113.41 342.073 113.452 341.961 113.536C341.859 113.611 341.807 113.709 341.807 113.83C341.807 113.933 341.849 114.031 341.933 114.124C342.027 114.217 342.143 114.264 342.283 114.264H343.585ZM347.883 121.502C348.07 121.502 348.163 121.749 348.163 122.244C348.163 122.748 348.07 123 347.883 123H346.343V123.028C346.343 124.008 346.077 124.773 345.545 125.324C345.013 125.875 344.28 126.159 343.347 126.178L343.095 124.666C343.674 124.703 344.089 124.591 344.341 124.33C344.602 124.078 344.733 123.644 344.733 123.028V116.196H346.343V121.502H347.883ZM350.575 112.626V123H347.887C347.7 123 347.607 122.748 347.607 122.244C347.607 121.749 347.7 121.502 347.887 121.502H348.965V112.626H350.575ZM352.961 112.626H354.571V123H352.961V112.626Z" fill="#ABB3C8"/>
<rect x="121" y="153" width="134" height="5" rx="2.5" fill="black"/>
<line x1="28" y1="58" x2="60" y2="58" stroke="#2E5579" stroke-width="8" stroke-linecap="round"/>
</g>
<g filter="url(#filter1_d_727_4791)">
<path d="M187.999 40.332C173.305 40.332 161.332 52.3054 161.332 66.9987C161.332 81.692 173.305 93.6654 187.999 93.6654C202.692 93.6654 214.665 81.692 214.665 66.9987C214.665 52.3054 202.692 40.332 187.999 40.332ZM198.665 68.9987H189.999V77.6654C189.999 78.7587 189.092 79.6654 187.999 79.6654C186.905 79.6654 185.999 78.7587 185.999 77.6654V68.9987H177.332C176.239 68.9987 175.332 68.092 175.332 66.9987C175.332 65.9054 176.239 64.9987 177.332 64.9987H185.999V56.332C185.999 55.2387 186.905 54.332 187.999 54.332C189.092 54.332 189.999 55.2387 189.999 56.332V64.9987H198.665C199.759 64.9987 200.665 65.9054 200.665 66.9987C200.665 68.092 199.759 68.9987 198.665 68.9987Z" fill="#2E5579"/>
</g>
<defs>
<filter id="filter0_d_727_4791" x="-25" y="38" width="425" height="157" filterUnits="userSpaceOnUse" color-interpolation-filters="sRGB">
<feFlood flood-opacity="0" result="BackgroundImageFix"/>
<feColorMatrix in="SourceAlpha" type="matrix" values="0 0 0 0 0 0 0 0 0 0 0 0 0 0 0 0 0 0 127 0" result="hardAlpha"/>
<feOffset dy="4"/>
<feGaussianBlur stdDeviation="12.5"/>
<feComposite in2="hardAlpha" operator="out"/>
<feColorMatrix type="matrix" values="0 0 0 0 0.520833 0 0 0 0 0.520833 0 0 0 0 0.520833 0 0 0 0.25 0"/>
<feBlend mode="normal" in2="BackgroundImageFix" result="effect1_dropShadow_727_4791"/>
<feBlend mode="normal" in="SourceGraphic" in2="effect1_dropShadow_727_4791" result="shape"/>
</filter>
<filter id="filter1_d_727_4791" x="116" y="-5" width="144" height="144" filterUnits="userSpaceOnUse" color-interpolation-filters="sRGB">
<feFlood flood-opacity="0" result="BackgroundImageFix"/>
<feColorMatrix in="SourceAlpha" type="matrix" values="0 0 0 0 0 0 0 0 0 0 0 0 0 0 0 0 0 0 127 0" result="hardAlpha"/>
<feOffset/>
<feGaussianBlur stdDeviation="20"/>
<feComposite in2="hardAlpha" operator="out"/>
<feColorMatrix type="matrix" values="0 0 0 0 0.196078 0 0 0 0 0.447059 0 0 0 0 0.847059 0 0 0 0.27 0"/>
<feBlend mode="normal" in2="BackgroundImageFix" result="effect1_dropShadow_727_4791"/>
<feBlend mode="normal" in="SourceGraphic" in2="effect1_dropShadow_727_4791" result="shape"/>
</filter>
<clipPath id="clip0_727_4791">
<rect width="375" height="107" fill="white" transform="translate(0 59)"/>
</clipPath>
</defs>
</svg>
