<svg width="24" height="24" viewBox="0 0 24 24" fill="none" xmlns="http://www.w3.org/2000/svg">
<path d="M18.6714 2H16.7714C14.5914 2 13.4414 3.15 13.4414 5.33V7.23C13.4414 9.41 14.5914 10.56 16.7714 10.56H18.6714C20.8514 10.56 22.0014 9.41 22.0014 7.23V5.33C22.0014 3.15 20.8514 2 18.6714 2Z" fill="#2E5579"/>
<path d="M7.24 13.4297H5.34C3.15 13.4297 2 14.5797 2 16.7597V18.6597C2 20.8497 3.15 21.9997 5.33 21.9997H7.23C9.41 21.9997 10.56 20.8497 10.56 18.6697V16.7697C10.57 14.5797 9.42 13.4297 7.24 13.4297Z" fill="#2E5579"/>
<path d="M6.29 10.58C8.6593 10.58 10.58 8.6593 10.58 6.29C10.58 3.9207 8.6593 2 6.29 2C3.9207 2 2 3.9207 2 6.29C2 8.6593 3.9207 10.58 6.29 10.58Z" fill="#2E5579"/>
<path d="M17.7119 22.0019C20.0812 22.0019 22.0019 20.0812 22.0019 17.7119C22.0019 15.3426 20.0812 13.4219 17.7119 13.4219C15.3426 13.4219 13.4219 15.3426 13.4219 17.7119C13.4219 20.0812 15.3426 22.0019 17.7119 22.0019Z" fill="#2E5579"/>
</svg>
