<svg width="149" height="188" viewBox="0 0 149 188" fill="none" xmlns="http://www.w3.org/2000/svg">
<path fill-rule="evenodd" clip-rule="evenodd" d="M148.25 182.619C148.25 182.647 148.25 182.66 148.25 182.66C148.25 185.368 146.034 187.502 143.368 187.502H97.4148C92.2862 187.502 87.855 186.886 84.1624 185.532C80.4287 186.886 76.0386 187.502 70.9099 187.502H64.2223C59.0526 187.502 54.6624 186.886 50.9287 185.532C47.2361 186.886 42.8049 187.502 37.6763 187.502H27.6652C23.3982 187.502 20.4167 185.327 18.7208 180.978C17.4079 183.071 14.864 184.178 11.2124 184.178C4.81189 184.178 0.75 178.64 0.75 171.336C0.75 163.418 4.72985 158.33 11.7458 158.33C11.7458 158.289 14.9872 158.289 21.5519 158.289C23.9316 158.289 25.9009 160.217 25.9009 162.638V174.988C25.9009 178.475 27.7062 180.404 31.3168 180.404H37.6763C40.0149 180.404 41.451 180.24 42.0254 179.993C39.7278 177.368 38.579 174.455 38.579 171.254C38.579 169.941 38.7842 168.587 39.1944 167.233C40.9177 162.105 45.3488 158.863 50.9287 158.863C56.6318 158.863 61.022 162.105 62.6631 167.233C63.0734 168.587 63.3195 169.941 63.3195 171.254C63.3195 174.455 62.1297 177.368 59.8731 179.993C60.4886 180.24 61.9246 180.404 64.2223 180.404H70.9099C73.2076 180.404 74.6436 180.24 75.2591 179.993C72.9614 177.368 71.8127 174.455 71.8127 171.254C71.8127 169.941 72.0178 168.587 72.4281 167.233C74.1103 162.105 78.5824 158.863 84.1624 158.863C89.8244 158.863 94.2556 162.105 95.8968 167.233C96.3071 168.587 96.5122 169.941 96.5122 171.254C96.5122 174.455 95.3633 177.368 93.0657 179.993C93.7222 180.24 95.1582 180.404 97.4148 180.404H105.58C108.041 180.404 109.354 179.132 109.354 175.316V171.336C109.354 168.382 111.734 166.003 114.688 166.003H116.781V173.06C121.499 166.987 127.735 163.377 133.644 163.377C143.162 163.377 148.25 170.639 148.25 182.619ZM18.2696 163.746H13.387C10.3509 163.746 8.13526 167.069 8.13526 171.213C8.13526 174.947 10.2278 178.024 13.2229 178.024C16.3412 178.024 18.2696 175.111 18.2696 170.762V163.746ZM56.6319 170.721C56.6319 167.398 54.4983 164.649 50.9287 164.649C49.2055 164.649 47.8105 165.264 46.7027 166.495C45.8001 167.644 45.3078 169.08 45.3078 170.721C45.3078 173.347 46.3335 175.357 48.3849 176.834C49.2329 177.463 50.0808 177.997 50.9287 178.434C51.7904 177.983 52.652 177.45 53.5547 176.834C55.6061 175.357 56.6319 173.347 56.6319 170.721ZM89.8244 170.721C89.8244 167.398 87.6909 164.649 84.1624 164.649C82.3981 164.649 81.0442 165.264 79.8954 166.495C78.9928 167.644 78.5414 169.08 78.5414 170.721C78.5414 173.347 79.5261 175.357 81.6186 176.834C82.4665 177.463 83.3145 177.997 84.1624 178.434C85.024 177.983 85.8446 177.45 86.7473 176.834C88.8397 175.357 89.8244 173.347 89.8244 170.721ZM140.496 179.419C140.496 173.962 137.788 169.818 133.11 169.818C127.653 169.818 122.771 173.388 118.709 180.404H140.454L140.496 179.419Z" fill="#FFF0BF"/>
<path d="M10.3509 155.623L10.2688 155.581C10.2278 155.581 9.36614 155.294 8.46349 154.474C7.64291 153.694 6.69922 152.34 6.69922 150.043V149.919L6.78136 149.837C7.43782 149.222 8.79171 148.853 10.3918 148.894C11.6227 148.894 13.1819 149.181 13.9204 149.837L14.0024 149.919V150.043C14.0024 152.34 13.0178 153.694 12.1972 154.474C11.3356 155.294 10.4739 155.581 10.4329 155.581L10.3509 155.623Z" fill="#FFF0BF"/>
<path d="M19.5813 155.623L19.4993 155.581C19.4583 155.581 18.5966 155.294 17.694 154.474C16.9144 153.694 15.9297 152.34 15.9297 150.043V149.919L16.0118 149.837C16.6683 149.222 18.0222 148.853 19.6634 148.894C20.8943 148.894 22.4534 149.181 23.1509 149.837L23.2329 149.919V150.043C23.2329 152.34 22.2892 153.694 21.4686 154.474C20.566 155.294 19.7044 155.581 19.6634 155.581L19.5813 155.623Z" fill="#FFF0BF"/>
<path d="M46.0462 155.623L45.9642 155.581C45.9231 155.581 45.0614 155.294 44.1588 154.474C43.3793 153.694 42.3945 152.34 42.3945 150.043V149.919L42.4767 149.837C43.1331 149.222 44.4871 148.853 46.1282 148.894C47.3591 148.894 48.9182 149.181 49.6157 149.837L49.6978 149.919V150.043C49.6978 152.34 48.7541 153.694 47.9335 154.474C47.0308 155.294 46.1693 155.581 46.1282 155.581L46.0462 155.623Z" fill="#FFF0BF"/>
<path d="M55.2767 155.623L55.2356 155.581C55.1946 155.581 54.292 155.294 53.4303 154.474C52.6098 153.694 51.625 152.34 51.625 150.043V149.919L51.7071 149.837C52.3636 149.222 53.7586 148.853 55.3587 148.894C56.5896 148.894 58.1487 149.181 58.8872 149.837L58.9693 149.919V150.043C58.9693 152.34 57.9845 153.694 57.1639 154.474C56.3023 155.294 55.3997 155.581 55.3587 155.581L55.2767 155.623Z" fill="#FFF0BF"/>
<path d="M84.2024 155.623L84.1204 155.581C84.0794 155.581 83.2177 155.294 82.3151 154.474C81.5355 153.694 80.5508 152.34 80.5508 150.043V149.919L80.6329 149.837C81.2894 149.222 82.6433 148.853 84.2845 148.894C85.5154 148.894 87.0745 149.181 87.772 149.837L87.854 149.919V150.043C87.854 152.34 86.8693 153.694 86.0897 154.474C85.1871 155.294 84.3255 155.581 84.2845 155.581L84.2024 155.623Z" fill="#FFF0BF"/>
<path d="M110.174 155.458C116.533 153.448 122.728 151.027 128.76 148.237C129.785 147.786 131.016 148.237 131.468 149.263C131.96 150.289 131.427 151.561 130.36 152.012C124 154.474 117.559 156.566 110.953 158.248C109.189 158.618 108.45 156.074 110.174 155.458Z" fill="#FFF0BF"/>
<path d="M91.2203 11.8573C91.2203 18.0937 86.1738 23.1814 79.8963 23.1814C73.6189 23.1814 68.5312 18.0937 68.5312 11.8573C68.5312 5.57981 73.6189 0.492188 79.8963 0.492188C86.1738 0.492188 91.2203 5.57981 91.2203 11.8573Z" fill="#FFC200"/>
<path d="M57.2498 11.8573C57.2498 18.0937 52.1621 23.1814 45.8846 23.1814C39.6071 23.1814 34.5195 18.0937 34.5195 11.8573C34.5195 5.57981 39.6071 0.492188 45.8846 0.492188C52.1621 0.492188 57.2498 5.57981 57.2498 11.8573Z" fill="#FFC200"/>
<path d="M58.5211 74.3437C56.5517 74.3437 54.5413 73.7693 52.7771 72.6615C48.3049 69.7894 46.7868 64.4146 48.8793 58.9167L58.1109 33.6427L65.8244 33.2734L55.3208 61.2964C54.0489 64.6608 55.485 66.2199 56.4697 66.8353C57.7006 67.6149 59.5058 67.779 60.6546 66.6302C61.3932 65.8506 62.2138 64.989 63.0754 64.0453C67.9579 58.7936 74.0712 52.2289 80.3897 51.0391C87.1185 49.8082 95.9398 54.0752 112.064 61.9939C113.705 62.8145 115.47 63.7992 117.275 64.6608L115.183 71.3896C113.377 70.4869 110.71 69.133 109.069 68.3124C95.2423 61.5015 86.0928 56.9883 81.6206 57.8089C77.5587 58.5885 71.8557 64.7018 68.122 68.7637C67.2194 69.7074 66.3577 70.61 65.5782 71.4306C63.7318 73.359 61.147 74.3437 58.5211 74.3437Z" fill="#FFC200"/>
<path fill-rule="evenodd" clip-rule="evenodd" d="M120.883 51.5361C120.801 65.2809 116.903 79.1488 108.779 91.4575C101.928 101.797 92.9422 109.88 82.767 115.419C79.7308 117.06 76.6126 118.496 73.4123 119.727C70.212 118.537 67.0938 117.101 64.0576 115.46C62.1976 114.448 60.3787 113.353 58.6007 112.177C37.2245 98.1043 25.6543 74.7586 25.6133 50.9617C25.6133 48.2264 25.7638 45.4911 26.0646 42.7559C28.499 41.4429 30.9881 40.2257 33.5319 39.1043C45.5535 33.8115 58.8059 30.8984 72.7558 30.8984C87.116 30.8984 100.738 33.9756 113.005 39.5146C115.549 40.6634 118.038 41.9216 120.473 43.2893C120.774 46.0519 120.91 48.8008 120.883 51.5361ZM113.908 47.5973C101.558 41.3199 87.5673 37.7913 72.7558 37.7913C58.3545 37.7913 44.6919 41.1557 32.5882 47.146C31.3163 69.9993 41.9019 92.9346 62.3755 106.433C65.945 108.772 69.6376 110.741 73.4123 112.3C85.1056 107.377 95.527 99.0479 103.035 87.6418C111.159 75.3331 114.647 61.3011 113.908 47.5973Z" fill="#FFC200"/>
<path d="M109.356 86.2464C108.864 86.2464 108.371 86.1233 107.879 85.9182L90.1951 77.5072C88.4719 76.7276 87.7334 74.6762 88.554 72.953C89.3746 71.2297 91.4261 70.4912 93.1493 71.3118L110.833 79.6817C112.556 80.5023 113.295 82.5538 112.474 84.277C111.9 85.5079 110.628 86.2464 109.356 86.2464Z" fill="#FFC200"/>
<path d="M100.45 99.5355C99.9572 99.5355 99.4649 99.4124 98.9725 99.2073L81.2889 90.8373C79.5657 90.0167 78.8271 87.9652 79.6477 86.242C80.4683 84.5188 82.5198 83.7803 84.243 84.6009L101.927 92.9708C103.65 93.7914 104.388 95.8429 103.568 97.5661C102.993 98.797 101.762 99.5355 100.45 99.5355Z" fill="#FFC200"/>
<path d="M88.9218 110.451C88.4295 110.451 87.9371 110.369 87.4447 110.123L71.033 102.327C69.3098 101.507 68.6124 99.4552 69.4329 97.732C70.2125 96.0088 72.3049 95.3113 73.9871 96.0909L90.3988 103.927C92.122 104.707 92.8606 106.758 92.04 108.482C91.4656 109.713 90.2348 110.451 88.9218 110.451Z" fill="#FFC200"/>
</svg>
