<svg width="351" height="253" viewBox="0 0 351 253" fill="none" xmlns="http://www.w3.org/2000/svg">
<path d="M187.302 53.579C187.302 57.6927 183.966 61.0251 179.856 61.0251C175.746 61.0251 172.41 57.6891 172.41 53.579C172.41 49.4688 175.743 46.1328 179.856 46.1328C183.97 46.1328 187.302 49.4688 187.302 53.579Z" fill="#1D184E"/>
<path d="M164.998 53.579C164.998 57.6927 161.662 61.0251 157.552 61.0251C153.441 61.0251 150.105 57.6891 150.105 53.579C150.105 49.4688 153.438 46.1328 157.552 46.1328C161.665 46.1328 164.998 49.4688 164.998 53.579Z" fill="#1D184E"/>
<path d="M165.842 94.5713C164.551 94.5713 163.235 94.2089 162.063 93.4629C159.135 91.5978 158.129 88.0648 159.498 84.4649L165.564 67.887L170.621 67.6406L163.731 86.0273C162.893 88.2337 163.847 89.2436 164.487 89.6518C165.286 90.1621 166.486 90.2782 167.229 89.5146C167.714 89.0149 168.249 88.4413 168.816 87.829C172.032 84.3663 176.037 80.0591 180.172 79.299C184.584 78.4861 190.387 81.2767 200.958 86.4812C202.038 87.0126 203.189 87.6495 204.372 88.2266L203.003 92.6324C201.817 92.0518 200.068 91.1404 198.984 90.6055C189.919 86.1434 183.93 83.191 180.988 83.7329C178.324 84.222 174.594 88.2372 172.124 90.894C171.532 91.531 170.973 92.1327 170.466 92.6535C169.242 93.9098 167.563 94.5608 165.842 94.5608" fill="#1D184E"/>
<path d="M206.479 74.2175C204.882 73.3202 203.242 72.4932 201.567 71.7366C193.522 68.1015 184.591 66.0781 175.192 66.0781C165.793 66.0781 157.337 67.996 149.458 71.4481C147.783 72.1836 146.139 72.9894 144.542 73.8586C144.341 75.6497 144.243 77.4515 144.246 79.2426C144.271 94.8563 151.879 110.157 165.888 119.394C167.06 120.165 168.253 120.879 169.463 121.537C171.465 122.625 173.521 123.557 175.607 124.335C177.712 123.547 179.763 122.603 181.748 121.52C188.42 117.87 194.325 112.585 198.801 105.793C204.125 97.7172 206.701 88.6277 206.75 79.6262C206.761 77.8174 206.669 76.0087 206.476 74.214L206.479 74.2175ZM195.025 103.312C190.098 110.783 183.268 116.245 175.597 119.479C173.119 118.441 170.702 117.16 168.376 115.629C154.93 106.761 147.99 91.728 148.831 76.7266C156.777 72.8029 165.726 70.6 175.189 70.6C184.651 70.6 194.068 72.9225 202.172 77.0397C202.647 86.0202 200.356 95.2258 195.025 103.312Z" fill="#1D184E"/>
<path d="M199.185 102.377C198.861 102.377 198.534 102.306 198.221 102.158L186.612 96.6653C185.486 96.1304 185.004 94.7862 185.539 93.6601C186.07 92.5341 187.418 92.052 188.544 92.5833L200.153 98.0764C201.279 98.6113 201.761 99.9556 201.226 101.082C200.843 101.898 200.03 102.373 199.185 102.373" fill="#1D184E"/>
<path d="M193.341 111.103C193.018 111.103 192.69 111.033 192.377 110.885L180.768 105.392C179.642 104.857 179.16 103.513 179.695 102.387C180.226 101.261 181.574 100.779 182.7 101.31L194.309 106.803C195.435 107.338 195.917 108.682 195.382 109.808C194.999 110.625 194.186 111.1 193.341 111.1" fill="#1D184E"/>
<path d="M185.787 118.265C185.463 118.265 185.132 118.195 184.819 118.047L174.054 112.93C172.928 112.395 172.45 111.048 172.985 109.922C173.519 108.796 174.867 108.317 175.993 108.852L186.758 113.968C187.884 114.503 188.363 115.851 187.828 116.977C187.441 117.79 186.631 118.265 185.787 118.265Z" fill="#1D184E"/>
<path d="M280.707 72.2054C271.1 51.2393 261.831 22.5807 260.342 0.5625L249.138 24.4176C232.409 15.8384 212.555 10.6408 189.991 8.95877C108.766 2.90965 71.8272 52.0416 70.293 54.1354L90.7769 69.1227C91.069 68.7251 120.773 29.2527 188.101 34.2708C203.082 35.3863 216.496 38.2472 228.182 42.7973L209.085 51.7284C231.1 53.2521 259.744 62.5669 280.7 72.2018L280.707 72.2054Z" fill="#B9E3E5"/>
<path d="M70.2969 98.4688C79.9037 119.435 89.1692 148.097 90.6612 170.112L101.866 146.256C118.595 154.832 138.449 160.03 161.013 161.712C242.238 167.761 279.176 118.632 280.711 116.535L260.227 101.548C259.935 101.945 230.231 141.418 162.902 136.4C147.922 135.284 134.508 132.423 122.821 127.873L141.915 118.942C119.904 117.418 91.2594 108.104 70.3004 98.4688H70.2969Z" fill="#B9E3E5"/>
<path d="M149.286 100.555H147.91V198.745H149.286V100.555Z" fill="#752D24"/>
<path d="M162.831 84.3611L132.357 82.9219L125.875 108.783C126.452 108.878 167.216 106.418 167.216 106.418L162.831 84.3576V84.3611Z" fill="#FAA761"/>
<path d="M152.024 104.824C151.521 105.711 151 106.577 150.469 107.425C159.344 106.901 167.216 106.425 167.216 106.425L162.831 84.365L159.432 84.2031C158.439 90.7097 155.969 97.8532 152.024 104.824Z" fill="#F78E42"/>
<path d="M135.038 83.0486L132.357 82.9219L125.875 108.783C125.938 108.793 126.505 108.772 127.459 108.727C129.102 105.584 130.576 102.135 131.801 98.4511C133.571 93.1304 134.634 87.8907 135.038 83.0486Z" fill="#FDC48B"/>
<path d="M145.78 107.697C146.909 104.689 148.011 101.458 149.049 98.0696C150.587 93.0515 151.815 88.2375 152.712 83.8846L140.28 83.2969C138.978 86.6681 137.704 90.3489 136.514 94.2303C134.977 99.2554 133.745 104.08 132.848 108.44C136.465 108.239 141.096 107.972 145.78 107.694V107.697Z" fill="#F7954C"/>
<path d="M162.83 84.3621L162.636 84.3516C161.788 88.8312 161.281 94.4898 161.281 100.644C161.281 102.752 161.341 104.8 161.454 106.767C164.937 106.56 167.214 106.423 167.214 106.423L162.83 84.3621Z" fill="#F7954C"/>
<path d="M167.201 103.258C162.641 103.532 132.247 105.359 126.096 105.637L125.16 109.363C125.755 109.462 167.926 106.918 167.926 106.918L167.198 103.258H167.201Z" fill="#FED7B2"/>
<path d="M151.414 107.903C160.257 107.379 167.929 106.918 167.929 106.918L167.2 103.258C165.406 103.367 159.61 103.715 152.867 104.113C152.41 105.415 151.924 106.682 151.414 107.903Z" fill="#FCC497"/>
<path d="M129.172 105.477C127.87 105.547 126.818 105.6 126.096 105.631L125.16 109.358C125.262 109.376 126.606 109.312 128.757 109.2C128.848 107.996 128.985 106.754 129.172 105.477Z" fill="#FFF0DC"/>
<path d="M43.6547 160.225L41.2149 160.565C40.9474 160.603 40.7607 160.85 40.798 161.117L41.0388 162.846C41.076 163.114 41.3231 163.3 41.5907 163.263L44.0304 162.923C44.298 162.886 44.4847 162.639 44.4474 162.371L44.2066 160.642C44.1693 160.375 43.9222 160.188 43.6547 160.225Z" fill="#595046"/>
<path d="M27.8577 237.308C27.3264 237.308 26.8302 237.206 26.3798 236.98C24.0115 235.809 23.5716 231.649 25.0637 224.618C25.9469 220.455 26.8232 214.526 27.7486 208.244C30.4723 189.77 33.8646 166.773 40.9272 161.956C42.1976 161.09 43.5594 160.816 44.974 161.139L44.7242 162.23C43.6122 161.973 42.5776 162.188 41.5606 162.881C34.9027 167.424 31.4084 191.114 28.8571 208.41C27.9281 214.709 27.0519 220.656 26.1581 224.854C24.8209 231.139 25.0777 235.091 26.8759 235.981C29.4941 237.276 35.5573 232.814 43.0914 224.045L43.9395 224.773C39.7237 229.678 32.4324 237.311 27.8542 237.311L27.8577 237.308Z" fill="#595046"/>
<path d="M103.3 140.429C101.984 137.888 94.1328 136.125 94.1328 136.125L95.9944 139.457C104.69 139.834 100.523 158.041 100.523 158.041C100.523 158.041 102.205 160.388 104.834 158.02C107.463 155.652 104.616 142.969 103.3 140.429Z" fill="#433B33"/>
<path d="M97.6374 139.023C97.099 139.023 96.5782 139.178 96.082 139.467C104.654 139.967 100.523 158.04 100.523 158.04C100.523 158.04 101.28 159.089 102.568 159.071C103.226 157.012 103.613 154.521 103.613 151.833C103.613 144.759 100.938 139.023 97.6374 139.023Z" fill="#322B23"/>
<path d="M78.3877 141.005L73.7109 136.054L82.6245 135.305L78.3877 141.005Z" fill="#595046"/>
<path d="M76.3409 166.273C75.792 157.293 78.2764 135.852 78.2764 135.852C84.6703 134.958 90.8391 134.272 97.0431 136.929L99.355 167.217L76.3409 166.277V166.273Z" fill="#595046"/>
<path d="M97.0469 136.925C95.2522 136.158 93.4611 135.676 91.6664 135.391C92.606 137.731 93.1408 140.412 93.1408 143.259C93.1408 152.384 87.6618 159.784 80.9018 159.784C79.3007 159.784 77.7735 159.365 76.3729 158.612C76.2497 161.544 76.2145 164.232 76.3412 166.273L99.3553 167.213L97.0434 136.925H97.0469Z" fill="#433B33"/>
<path d="M88.3113 140.624C87.4808 140.677 86.77 141.394 86.7207 142.264L85.8903 156.906C85.7882 158.701 86.7454 160.2 88.0333 160.133C89.3248 160.07 90.3312 158.469 90.2784 156.674L89.8632 142.063C89.8386 141.197 89.1453 140.567 88.3113 140.62V140.624Z" fill="#2B251E"/>
<path d="M80.2777 152.502C81.5093 152.597 83.0471 145.658 83.7087 137.005C83.7544 136.396 83.7967 135.794 83.8318 135.203C82.3398 135.323 80.8372 135.506 79.324 135.71C79.2959 136.027 79.2713 136.343 79.2466 136.667C78.5851 145.32 79.0496 152.411 80.2812 152.506L80.2777 152.502Z" fill="#6A5F55"/>
<path d="M98.0735 150.388C97.4401 149.755 96.7574 149.406 96.0466 149.406C92.8127 149.406 90.1875 156.55 90.1875 165.358C90.1875 165.857 90.1981 166.35 90.2121 166.839L99.3544 167.212L98.07 150.385L98.0735 150.388Z" fill="#4E453D"/>
<path d="M88.2516 141.469C87.6287 141.518 87.0974 142.173 87.0622 142.968L86.4393 156.34C86.3619 157.98 87.0798 159.345 88.044 159.289C89.0117 159.229 89.7647 157.769 89.726 156.132L89.4164 142.788C89.3988 141.997 88.878 141.423 88.2551 141.472L88.2516 141.469Z" fill="#498B9E"/>
<path d="M89.5807 149.933L89.4505 144.289C88.6587 145.968 87.7437 147.319 86.8218 148.188L86.5156 154.793C87.3989 152.661 88.4863 150.958 89.5842 149.933H89.5807Z" fill="#5DA5B4"/>
<path d="M50.3363 153.958C50.0513 153.919 49.7874 154.12 49.7487 154.408L49.1962 158.515C49.1575 158.8 49.3581 159.064 49.6466 159.103C49.9317 159.141 50.1956 158.941 50.2343 158.652L50.7868 154.546C50.8255 154.261 50.6249 153.997 50.3363 153.958Z" fill="#978571"/>
<path d="M44.9727 154.322C44.6841 154.347 44.4695 154.6 44.4941 154.885L44.8319 159.013C44.8566 159.302 45.1064 159.516 45.395 159.492C45.6835 159.467 45.8982 159.214 45.8736 158.929L45.5392 154.801C45.5146 154.512 45.2612 154.298 44.9762 154.322H44.9727Z" fill="#978571"/>
<path d="M42.2969 158.527L42.8564 164.104L52.3365 163.964L52.7553 158.108C48.8527 156.296 42.2969 158.527 42.2969 158.527Z" fill="#AB9D88"/>
<path d="M42.2969 158.532L42.406 159.629C43.43 160.393 44.644 160.84 45.9461 160.84C48.1454 160.84 50.0914 159.577 51.2949 157.638C47.4099 156.793 42.2969 158.532 42.2969 158.532Z" fill="#BEAE9C"/>
<path d="M107.522 241.123H33.043L33.9861 236.172L106.959 236.742L107.522 241.123Z" fill="#6D564A"/>
<path d="M109.044 238.835H86.1842C85.484 212.126 86.5713 186.687 90.2803 163.117L108.709 167.833L109.044 238.835Z" fill="#AB9D88"/>
<path d="M92.0179 236.15C92.7499 218.15 99.7772 203.156 108.856 198.19L108.712 167.836L105.228 166.945C105.2 169.57 105.024 172.266 104.693 175.011C102.624 192.078 95.0618 205.957 86.1623 210.862C85.923 220.011 85.9406 229.344 86.187 238.842H91.9581C91.9616 237.951 91.9757 237.054 92.0144 236.153L92.0179 236.15Z" fill="#B9A894"/>
<path d="M31.4219 238.837H86.6135L90.2803 163.119C73.7692 161.43 57.2406 162.05 40.7085 163.69C35.43 189.343 31.904 214.511 31.4219 238.834V238.837Z" fill="#E2D1BD"/>
<path d="M57.9338 230.631C61.847 205.002 75.0853 181.464 89.8721 171.639L90.2838 163.123C85.5965 162.645 80.9092 162.356 76.2184 162.219C75.4267 170.89 72.249 180.95 66.5729 191.409C57.7227 207.709 44.7447 221.383 31.7597 229.396C31.5978 232.556 31.4852 235.706 31.4219 238.841H57.0189C57.2019 236.184 57.501 233.443 57.9303 230.635L57.9338 230.631Z" fill="#EDDDCD"/>
<path d="M80.3298 204.301C81.3785 189.891 73.6473 177.948 63.0622 177.624C52.4771 177.3 43.0462 188.723 41.9976 203.133C40.9489 217.543 48.6801 229.487 59.2617 229.81C69.8468 230.134 79.2776 218.711 80.3263 204.301H80.3298Z" fill="#C5AB92"/>
<path d="M78.6179 203.189C79.9868 189.771 72.7588 178.64 62.4728 178.327C52.1868 178.014 42.7384 188.634 41.3695 202.052C40.0006 215.47 47.2286 226.6 57.5146 226.914C67.8006 227.227 77.249 216.603 78.6179 203.189Z" fill="#F0E6DA"/>
<path d="M71.4209 202.948C72.357 193.555 67.4691 185.666 60.5051 185.332C53.541 184.994 47.1329 192.334 46.1969 201.73C45.2608 211.122 50.1487 219.012 57.1128 219.346C64.0768 219.684 70.4849 212.343 71.4209 202.948Z" fill="#E2D1BD"/>
<path d="M62.4742 178.327C61.32 178.292 60.1763 178.401 59.0502 178.629C59.6133 178.577 60.1798 178.556 60.7499 178.573C70.6066 178.872 77.5354 189.542 76.2229 202.4C74.9103 215.258 65.856 225.439 55.9993 225.14C51.5056 225.003 47.6206 222.705 44.8477 219.031C47.7684 223.736 52.2375 226.751 57.516 226.91C67.8019 227.223 77.2504 216.603 78.6193 203.185C79.9882 189.767 72.7602 178.636 62.4742 178.323V178.327Z" fill="#E2D1BD"/>
<path d="M71.738 202.982C72.6002 194.519 68.0431 187.498 61.5541 187.301C55.0651 187.104 49.1075 193.804 48.2453 202.267C47.3832 210.73 51.9402 217.751 58.4292 217.948C64.9182 218.145 70.8759 211.445 71.738 202.982Z" fill="#544137"/>
<path d="M71.4221 202.952C72.2209 195.129 68.0052 188.64 62.0089 188.457C56.0125 188.274 50.5053 194.467 49.7065 202.29C48.9077 210.113 53.1234 216.602 59.1198 216.785C65.1161 216.968 70.6233 210.774 71.4221 202.955V202.952Z" fill="#60A4C9"/>
<path d="M69.3356 204.083C69.9338 198.231 66.7808 193.375 62.2941 193.237C57.8074 193.1 53.6867 197.735 53.0885 203.587C52.4902 209.439 55.6432 214.295 60.1299 214.432C64.6166 214.569 68.7373 209.935 69.3356 204.083Z" fill="#4695B5"/>
<path d="M51.899 204.764C52.6979 196.941 58.2051 190.751 64.2014 190.934C66.1122 190.994 67.84 191.695 69.2828 192.87C67.5796 190.231 65.0213 188.549 62.0091 188.457C56.0127 188.274 50.5055 194.467 49.7067 202.29C49.1613 207.621 50.9489 212.33 54.0386 214.849C52.3495 212.228 51.5014 208.663 51.899 204.768V204.764Z" fill="#3584A3"/>
<path d="M61.8477 197.47C64.5502 198.906 66.2147 202.52 65.7889 206.693C65.5918 208.625 64.9725 210.413 64.0681 211.898C66.2886 210.335 67.9636 207.429 68.3085 204.065C68.5935 201.285 67.9038 198.765 66.5912 197.02C66.2675 196.998 65.9402 196.984 65.6094 196.984C64.3004 196.984 63.0371 197.153 61.8477 197.47Z" fill="#84C6E4"/>
<path d="M63.2432 195.982C65.6687 195.982 67.6349 195.103 67.6349 194.018C67.6349 192.934 65.6687 192.055 63.2432 192.055C60.8178 192.055 58.8516 192.934 58.8516 194.018C58.8516 195.103 60.8178 195.982 63.2432 195.982Z" fill="#84C6E4"/>
<path d="M60.1809 212.448C62.0108 211.582 62.5387 208.859 61.3598 206.367C60.1809 203.876 57.7388 202.556 55.9089 203.422C54.079 204.288 53.5512 207.011 54.73 209.503C55.9089 211.994 58.3511 213.314 60.1809 212.448Z" fill="#3584A3"/>
<path d="M55.0594 202.616C55.6295 202.94 56.365 202.43 56.6993 201.48C57.0336 200.526 56.8435 199.491 56.2735 199.168C55.7034 198.844 54.9679 199.354 54.6336 200.304C54.2993 201.258 54.4893 202.293 55.0594 202.616Z" fill="#3584A3"/>
<path d="M78.8517 206.461H73.4219V207.7H78.8517V206.461Z" fill="#C5AB92"/>
<path d="M74.6602 207.599V197.742H73.4215V207.599H74.6602Z" fill="#C5AB92"/>
<path d="M79.1407 197.742H73.7109V198.981H79.1407V197.742Z" fill="#C5AB92"/>
<path d="M84.3628 170.48L80.8051 170.361C79.8972 170.329 79.1406 170.906 79.1406 171.627V172.968L85.8935 173.193V171.747C85.8935 171.068 85.2179 170.512 84.3628 170.48Z" fill="#C5AB92"/>
<path d="M89.7573 173.904L89.81 172.785C87.4523 172.694 82.3322 172.514 75.8221 172.391L75.801 173.021H74.4673L74.4884 172.367C68.1789 172.261 60.7151 172.212 53.2479 172.352L53.2303 172.926H51.8966L51.9142 172.381C47.4697 172.476 43.0428 172.641 38.8869 172.898C38.8165 173.278 38.7462 173.654 38.6758 174.035C58.1146 172.799 83.5357 173.662 89.7608 173.904H89.7573Z" fill="#6D564A"/>
<path d="M74.4688 173.029H75.8024L75.8236 172.399L76.1473 162.218C75.7039 162.204 75.2605 162.19 74.8136 162.18L74.4899 172.378L74.4688 173.032V173.029Z" fill="#6D564A"/>
<path d="M51.8984 172.931H53.2321L53.2497 172.357L53.5594 162.648C53.1125 162.677 52.6691 162.705 52.2222 162.736L51.916 172.385L51.8984 172.931Z" fill="#6D564A"/>
<path d="M49.8053 168.392C49.9003 166.597 48.6299 165.141 46.9725 165.141C45.315 165.141 43.8969 166.597 43.8019 168.392C43.7069 170.187 44.9772 171.644 46.6347 171.644C48.2921 171.644 49.7102 170.187 49.8053 168.392Z" fill="#C5AB92"/>
<path d="M48.9888 168.059C49.0803 166.317 47.8487 164.906 46.2405 164.906C44.6324 164.906 43.2564 166.317 43.1649 168.059C43.0734 169.801 44.3051 171.212 45.9133 171.212C47.5214 171.212 48.8974 169.801 48.9888 168.059Z" fill="#F0E6DA"/>
<path d="M71.3395 165.023H63.3197C62.9835 165.023 62.7109 165.296 62.7109 165.632V169.081C62.7109 169.417 62.9835 169.69 63.3197 169.69H71.3395C71.6757 169.69 71.9483 169.417 71.9483 169.081V165.632C71.9483 165.296 71.6757 165.023 71.3395 165.023Z" fill="#544137"/>
<path d="M71.0694 165.547H64.3552C64.0792 165.547 63.8555 165.771 63.8555 166.047V168.858C63.8555 169.134 64.0792 169.358 64.3552 169.358H71.0694C71.3453 169.358 71.5691 169.134 71.5691 168.858V166.047C71.5691 165.771 71.3453 165.547 71.0694 165.547Z" fill="#498B9E"/>
<path d="M66.1834 166.977C65.6344 166.977 65.1875 167.423 65.1875 167.972V169.021H70.1141C70.663 169.021 71.1099 168.574 71.1099 168.025V166.977H66.1834Z" fill="#60A4C9"/>
<path d="M54.8154 166.859H55.5719C55.8711 166.859 56.1139 167.102 56.1139 167.401V168.214C56.1139 168.513 55.8711 168.756 55.5719 168.756H54.8154C54.5162 168.756 54.2734 168.513 54.2734 168.214V167.401C54.2734 167.102 54.5162 166.859 54.8154 166.859Z" fill="#C5AB92"/>
<path d="M55.7069 167.109H55.084C54.8391 167.109 54.6406 167.308 54.6406 167.553V168.221C54.6406 168.466 54.8391 168.665 55.084 168.665H55.7069C55.9518 168.665 56.1503 168.466 56.1503 168.221V167.553C56.1503 167.308 55.9518 167.109 55.7069 167.109Z" fill="#F0E6DA"/>
<path d="M57.3349 166.859H58.0915C58.3906 166.859 58.6334 167.102 58.6334 167.401V168.214C58.6334 168.513 58.3906 168.756 58.0915 168.756H57.3349C57.0358 168.756 56.793 168.513 56.793 168.214V167.401C56.793 167.102 57.0358 166.859 57.3349 166.859Z" fill="#C5AB92"/>
<path d="M58.2264 167.109H57.6035C57.3587 167.109 57.1602 167.308 57.1602 167.553V168.221C57.1602 168.466 57.3587 168.665 57.6035 168.665H58.2264C58.4713 168.665 58.6698 168.466 58.6698 168.221V167.553C58.6698 167.308 58.4713 167.109 58.2264 167.109Z" fill="#F0E6DA"/>
<path d="M59.8466 166.859H60.6032C60.9023 166.859 61.1451 167.102 61.1451 167.401V168.214C61.1451 168.513 60.9023 168.756 60.6032 168.756H59.8466C59.5475 168.756 59.3047 168.513 59.3047 168.214V167.401C59.3047 167.102 59.5475 166.859 59.8466 166.859Z" fill="#C5AB92"/>
<path d="M60.7381 167.109H60.1153C59.8704 167.109 59.6719 167.308 59.6719 167.553V168.221C59.6719 168.466 59.8704 168.665 60.1153 168.665H60.7381C60.983 168.665 61.1815 168.466 61.1815 168.221V167.553C61.1815 167.308 60.983 167.109 60.7381 167.109Z" fill="#F0E6DA"/>
<path d="M136.375 142.926L113.66 204.501L123.802 206.644L144.659 142.5C144.659 142.5 141.372 143.359 136.372 142.929L136.375 142.926Z" fill="#FFCE33"/>
<path d="M118.946 134.638C118.946 134.638 103.898 206.829 103.898 207.403L122.377 211.214C122.187 205.499 140.281 137.115 140.281 137.115C130.949 127.783 118.946 134.638 118.946 134.638Z" fill="#FFF0BF"/>
<path d="M134.013 133.113C126.324 130.428 118.942 134.644 118.942 134.644C118.942 134.644 112.15 167.226 107.691 188.787C114.286 190.529 124.276 175.886 130.069 155.944C132.486 147.618 133.788 139.687 134.017 133.113H134.013Z" fill="#FFC200"/>
<path d="M162.48 241.125H151.793L152.996 162.648L161.811 163.799L162.48 241.125Z" fill="#E48649"/>
<path d="M122.57 241.125H154.473L153.58 162.648L125.048 163.468L122.57 241.125Z" fill="#EDBB73"/>
<path d="M154.463 240.124L153.999 199.265H149.572L150.659 185.484L144.304 184.728L143.822 184.682L143.825 184.633L143.445 184.647L143.273 184.633L143.269 184.654L124.348 185.446L123.285 211.124L131.143 240.124H154.463Z" fill="#E79E61"/>
<path d="M139.334 200.935C139.334 200.935 150.011 173.719 153.6 164.401L153.579 162.648L152.724 162.673L139.239 199.696L125.864 163.447L125.047 163.472L125.016 164.45L139.334 200.935Z" fill="#E48649"/>
<path d="M139.282 199.508C139.282 199.508 128.605 226.724 125.016 236.042L125.037 237.794L125.892 237.77L139.377 200.746L152.752 236.995L153.569 236.971L153.6 235.993L139.282 199.508Z" fill="#E48649"/>
<path d="M115.376 186.062L113.473 186.143L114.81 203.524H115.855L115.376 186.062Z" fill="#5D1D19"/>
<path d="M134.095 186.032L132.191 185.938L131.906 203.367L132.944 203.462L134.095 186.032Z" fill="#5D1D19"/>
<path d="M124.86 185.942L122.953 185.844L123.615 203.745L124.66 203.843L124.86 185.942Z" fill="#752D24"/>
<path d="M123.231 193.388L124.772 193.747L124.86 185.942L122.953 185.844L123.231 193.388Z" fill="#5D1D19"/>
<path d="M108.954 185.559L107.047 185.461L107.708 203.362L108.754 203.461L108.954 185.559Z" fill="#752D24"/>
<path d="M107.307 192.495L108.87 193.016L108.954 185.559L107.047 185.461L107.307 192.495Z" fill="#5D1D19"/>
<path d="M132.862 186.555H107.574V190.126H132.862V186.555Z" fill="#5D1D19"/>
<path d="M125.887 172.797L136.176 173.61L136.028 188.974H125.943L125.887 172.797Z" fill="#752D24"/>
<path d="M126.496 172.797L103.953 173.61L104.28 188.974H126.373L126.496 172.797Z" fill="#8E3F32"/>
<path d="M113.778 173.582C113.778 173.472 113.771 173.363 113.771 173.258L103.953 173.613L104.235 186.827C109.724 185.3 113.778 179.951 113.778 173.585V173.582Z" fill="#81332A"/>
<path d="M114.992 186.65C114.992 187.442 115.059 188.216 115.179 188.973H126.373L126.492 173.039C120.035 173.711 114.992 179.549 114.992 186.65Z" fill="#81332A"/>
<path d="M124.952 187.152H105.675L105.387 175.237L125.061 174.617L124.952 187.152ZM106.221 186.592H124.396L124.495 175.194L105.957 175.778L106.221 186.592Z" fill="#5D1D19"/>
<path d="M116.735 178.622C116.668 177.609 115.869 176.789 114.951 176.789C114.032 176.789 113.339 177.609 113.402 178.622C113.469 179.636 114.268 180.456 115.187 180.456C116.105 180.456 116.798 179.636 116.735 178.622Z" fill="#752D24"/>
<path d="M116.21 178.046C116.157 177.233 115.516 176.578 114.777 176.578C114.038 176.578 113.486 177.236 113.539 178.046C113.591 178.858 114.232 179.513 114.971 179.513C115.71 179.513 116.262 178.855 116.21 178.046Z" fill="#DB985B"/>
<path d="M128.262 179.036C127.333 176.925 126.946 174.782 127.037 172.888L125.887 172.797L125.943 188.974H136.028L136.057 185.961C133.182 185.708 130.025 183.041 128.262 179.032V179.036Z" fill="#692420"/>
<path d="M141.132 241.131H123.629L124.674 201.43L138.806 202.433L141.132 241.131Z" fill="#D68E53"/>
<path d="M125.61 226.941L140.355 228.219L140.179 225.273L125.512 224.562L125.61 226.941Z" fill="#E3B57E"/>
<path d="M139.299 210.602L124.337 214.216L124.273 216.637L139.472 213.498L139.299 210.602Z" fill="#E3B57E"/>
<path d="M125.068 240.325L140.903 237.316L140.77 235.109L124.941 238.481L125.068 240.325Z" fill="#E3B57E"/>
<path d="M95.3242 241.127H126.766L125.369 201.391L96.9359 201.859L95.3242 241.127Z" fill="#EDBB73"/>
<path d="M112.195 241.125L107.053 201.688L104.203 201.737L109.073 241.125H112.195Z" fill="#F9D19E"/>
<path d="M118.993 241.124L120.45 201.469L117.593 201.514L115.879 241.124H118.993Z" fill="#F9D19E"/>
<path d="M104.702 241.123L95.9611 225.562L95.8203 228.958L102.591 241.123H104.702Z" fill="#F9D19E"/>
<path d="M102.277 215.078L101.886 215.697L102.608 216.362L102.178 216.887L125.896 216.433L125.812 213.977L101.562 214.378L102.277 215.078Z" fill="#F9D19E"/>
<path d="M121.24 237.312L120.779 237.65L121.195 238.269L120.727 238.533L126.726 240.04L126.836 239.075L126.66 238.111L120.839 236.672L121.24 237.312Z" fill="#F9D19E"/>
<path d="M96.0352 223.788L126.274 227.057L126.186 224.548L96.1196 221.719L96.0352 223.788Z" fill="#F9D19E"/>
<path d="M173.97 235.18H180.727C181.051 235.18 181.315 235.444 181.315 235.767V237.238C181.315 237.562 181.051 237.826 180.727 237.826H173.97C173.647 237.826 173.383 237.562 173.383 237.238V235.767C173.383 235.444 173.647 235.18 173.97 235.18Z" fill="#C7B5A0"/>
<path d="M171.468 208.391H169.121C169.121 207.434 169.135 206.188 169.156 204.721C169.301 193.147 169.642 166.047 163.364 159.861C162.59 159.097 161.774 158.738 160.845 158.763C159.395 158.802 158.251 159.291 157.357 160.259C153.747 164.161 154.31 175.218 154.905 186.925C155.147 191.715 155.401 196.662 155.401 201.504H153.054C153.054 196.722 152.804 191.803 152.561 187.045C151.913 174.299 151.354 163.292 155.636 158.664C156.963 157.229 158.694 156.472 160.781 156.416C162.361 156.377 163.776 156.972 165.011 158.189C172 165.076 171.662 191.873 171.5 204.749C171.482 206.202 171.465 207.437 171.465 208.388L171.468 208.391Z" fill="#432B29"/>
<path d="M151.634 198.875H157.166C157.511 198.875 157.792 199.157 157.792 199.501V201.972C157.792 202.317 157.511 202.598 157.166 202.598H151.634C151.289 202.598 151.008 202.317 151.008 201.972V199.501C151.008 199.157 151.289 198.875 151.634 198.875Z" fill="#5B3F3E"/>
<path d="M148.778 229.138C148.669 222.515 146.438 217.148 143.791 217.148C141.145 217.148 139.086 222.518 139.196 229.138C139.305 235.76 141.536 241.127 144.182 241.127C146.828 241.127 148.887 235.757 148.778 229.138Z" fill="#752D24"/>
<path d="M166.383 234.461H143.953V241.129H166.383V234.461Z" fill="#752D24"/>
<path d="M167.718 200.838L155.719 199.789V220.551H167.718V200.838Z" fill="#5B3F3E"/>
<path d="M165.014 239.43H143.354C139.761 239.43 137.164 217.771 145.716 201.439C150.825 199.282 160.928 200.682 166.509 201.439L166.608 220.966L165.01 239.43H165.014Z" fill="#EB4F44"/>
<path d="M166.007 227.885C163.91 227.671 161.693 227.555 159.395 227.555C151.445 227.555 144.425 228.931 140.195 231.031C140.684 236.081 141.937 239.431 143.348 239.431H165.008L166.007 227.885Z" fill="#D73C37"/>
<path d="M168.296 235.198C168.296 233.344 162.732 231.891 155.867 231.947C149.001 232.007 143.438 233.559 143.438 235.41C143.438 237.261 149.001 238.717 155.867 238.661C162.732 238.601 168.296 237.049 168.296 235.198Z" fill="#EB4F44"/>
<path d="M160.998 203.479C156.469 202.87 149.92 202.187 146.39 203.725C144.567 207.325 143.392 211.238 142.695 215.035C145.289 215.63 148.167 215.961 151.201 215.961C153.217 215.961 155.16 215.809 156.996 215.538C157.806 211.474 159.09 207.332 160.998 203.479Z" fill="#F1B888"/>
<path d="M146.394 203.733C145.331 205.834 144.49 208.044 143.836 210.271C145.444 210.518 147.204 210.655 149.051 210.655C152.802 210.655 156.202 210.095 158.675 209.187C159.319 207.249 160.087 205.334 161.005 203.487C156.476 202.878 149.927 202.195 146.398 203.733H146.394Z" fill="#F3D2BA"/>
<path d="M151.203 215.965C153.22 215.965 155.162 215.813 156.999 215.542C157.175 214.656 157.379 213.762 157.604 212.871C156.33 212.671 154.962 212.555 153.526 212.555C149.095 212.555 145.239 213.6 143.219 215.141C145.675 215.665 148.367 215.965 151.203 215.965Z" fill="#F3D2BA"/>
<path d="M172.018 209.987V202.9L168.699 202.703L168.879 209.291L175.248 239.73H176.684L172.018 209.987Z" fill="#AB9D88"/>
<path d="M160.764 222.088C154.736 221.852 150.102 222.369 150.024 223.362C149.947 224.343 154.346 225.459 160.244 226.04C160.483 224.695 160.655 223.369 160.764 222.088Z" fill="#F1605E"/>
<path d="M166.611 220.968L166.513 201.441C166.087 201.385 165.622 201.321 165.147 201.258C164.644 201.392 164.159 201.543 163.719 201.726C155.738 216.974 157.469 236.856 160.657 239.432H165.014L166.611 220.968Z" fill="#CC3632"/>
<path d="M166.507 201.443C166.384 201.426 166.254 201.408 166.127 201.391C166.232 202.724 166.289 204.1 166.289 205.511C166.289 216.997 162.601 226.358 157.98 226.822C158.005 233.297 159.17 238.234 160.651 239.434H165.008L166.605 220.97L166.507 201.443Z" fill="#B02829"/>
<path d="M140.793 221.358C146.821 221.594 151.455 221.077 151.533 220.084C151.61 219.102 147.212 217.987 141.314 217.406C141.074 218.75 140.902 220.077 140.793 221.358Z" fill="#F1605E"/>
<path d="M157.078 237.161H144.374C143.867 237.161 143.392 236.806 142.97 236.109C140.44 231.929 139.719 216.058 146.179 203.713L146.225 203.625L146.317 203.587C150.005 202.031 156.469 202.57 161.012 203.112L161.392 203.157L161.234 203.506C155.938 215.136 155.329 228.93 157.004 236.827L157.074 237.165L157.078 237.161ZM146.63 204.065C140.19 216.456 141.253 232.192 143.449 235.821C143.663 236.179 144.001 236.605 144.374 236.605H156.388C154.797 228.652 155.438 215.132 160.569 203.625C156.156 203.112 150.11 202.654 146.63 204.069V204.065Z" fill="#752D24"/>
<path d="M166.442 241.131C169.087 241.131 171.231 235.739 171.231 229.089C171.231 222.438 169.087 217.047 166.442 217.047C163.797 217.047 161.652 222.438 161.652 229.089C161.652 235.739 163.797 241.131 166.442 241.131Z" fill="#752D24"/>
<path d="M171.276 229.086C171.276 223.167 169.365 218.367 167.011 218.367C164.657 218.367 162.746 223.167 162.746 229.086C162.746 235.005 164.657 239.805 167.011 239.805C169.365 239.805 171.276 235.005 171.276 229.086Z" fill="#F1B888"/>
<path d="M167.653 237.192C169.433 237.192 170.876 233.562 170.876 229.084C170.876 224.607 169.433 220.977 167.653 220.977C165.873 220.977 164.43 224.607 164.43 229.084C164.43 233.562 165.873 237.192 167.653 237.192Z" fill="#752D24"/>
<path d="M167.652 220.976C167.469 220.976 167.29 221.022 167.117 221.095C168.644 221.739 169.806 225.065 169.806 229.08C169.806 233.095 168.641 236.424 167.117 237.065C167.293 237.138 167.469 237.184 167.652 237.184C169.433 237.184 170.875 233.556 170.875 229.076C170.875 224.597 169.433 220.969 167.652 220.969V220.976Z" fill="#561F19"/>
<path d="M157.213 214.813C152.184 216.073 147.272 215.676 142.43 214.289V215.077C147.064 216.517 151.924 216.978 157.213 215.602V214.813Z" fill="#752D24"/>
<path d="M150.207 202.988C150.337 204.026 151.653 204.846 153.265 204.846C154.877 204.846 156.196 204.03 156.323 202.988C154.342 202.773 152.29 202.819 150.207 202.988Z" fill="#752D24"/>
<path d="M151.316 202.96C151.397 203.625 152.242 204.149 153.273 204.149C154.304 204.149 155.148 203.625 155.229 202.96C153.959 202.823 152.646 202.851 151.312 202.96H151.316Z" fill="#F1B888"/>
<path d="M172.018 209.991V202.904L168.699 202.703L168.879 209.291L170.205 215.632C170.811 216.343 171.504 216.747 172.239 216.747C172.517 216.747 172.788 216.684 173.052 216.575L172.021 209.991H172.018Z" fill="#C7B5A0"/>
<path d="M176.684 239.73L173.999 222.617C173.475 224.535 173.14 226.819 173.066 229.296L175.248 239.726H176.684V239.73Z" fill="#C7B5A0"/>
<path d="M187.024 236.336H170.84V241.125H188.357L187.024 236.336Z" fill="#AB9D88"/>
<path d="M170.839 238.124C173.137 238.574 176.037 238.841 179.194 238.841C182.35 238.841 185.229 238.574 187.519 238.127L187.02 236.336H170.836V238.124H170.839Z" fill="#C7B5A0"/>
<path d="M186.49 239.555H175.489L175.145 241.124H187.049L186.49 239.555Z" fill="#706250"/>
<path d="M174.162 236.336H170.84V241.125H174.433L174.162 236.336Z" fill="#AB9D88"/>
<path d="M159.497 158.959C159.057 158.238 158.596 157.565 158.121 156.953C157.181 157.33 156.351 157.896 155.636 158.667C151.354 163.294 151.913 174.302 152.561 187.047C152.709 189.958 152.853 192.928 152.948 195.891C153.729 196.369 154.524 196.689 155.323 196.837C155.232 193.515 155.07 190.183 154.905 186.928C154.31 175.22 153.747 164.163 157.357 160.261C157.952 159.617 158.663 159.188 159.493 158.962L159.497 158.959Z" fill="#5B3F3E"/>
<path d="M240.203 175.575C239.703 175.688 240.038 177.739 242.448 180.565L242.698 178.292C242.005 177.293 240.703 175.463 240.203 175.575Z" fill="#F5875E"/>
<path d="M295.747 145.002C295.747 145.002 297.003 147.515 294.934 147.146C292.865 146.776 289.241 143.078 289.832 136.94C290.423 130.803 290.94 125.184 284.729 119.785C278.518 114.387 272.307 116.383 271.195 121.929L275.042 129.1C275.042 129.1 279.036 134.646 279.775 139.823C280.514 144.999 285.986 149.954 292.566 150.397C298.232 150.781 298.555 146.846 295.747 144.999V145.002Z" fill="#631C2C"/>
<path d="M288.656 125.417C288.733 125.315 288.793 125.206 288.856 125.097C288.029 123.299 286.727 121.532 284.725 119.79C280.562 116.173 276.406 115.881 273.777 117.746C274.425 119.671 276.068 121.849 278.422 123.647C282.462 126.733 287.044 127.528 288.656 125.417Z" fill="#782435"/>
<path d="M275.849 122.902C275.053 121.403 273.618 120.524 272.639 120.939C271.661 121.35 271.513 122.902 272.309 124.401C273.104 125.901 274.54 126.78 275.518 126.365C276.496 125.953 276.644 124.401 275.849 122.902Z" fill="#EBCA99"/>
<path d="M256.365 132.176C250.08 125.004 259.842 118.568 265.018 118.42C270.195 118.272 273.006 120.932 275.15 123.818C277.293 126.704 279.809 138.756 270.638 140.899C259.958 143.398 256.365 132.172 256.365 132.172V132.176Z" fill="#782435"/>
<path d="M272.211 123.93C272.211 121.872 270.754 120.031 268.46 118.789C267.443 118.518 266.303 118.384 265.022 118.42C260.599 118.546 252.839 123.262 254.588 129.107C256.453 130.099 258.86 130.697 261.489 130.697C267.411 130.697 272.211 127.667 272.211 123.93Z" fill="#943143"/>
<path d="M272.212 184.308C268.915 194.446 263.7 218.002 262.482 232.81C262.127 237.117 265.544 240.805 269.869 240.805H298.833L277.684 227.788L287.742 194.513L283.748 183.273L272.212 184.308Z" fill="#53302A"/>
<path d="M271.652 186.102C268.39 196.894 263.737 218.339 262.523 232.351C266.229 229.153 270.096 220.806 272.222 210.587C274.46 199.829 274.101 190.205 271.652 186.105V186.102Z" fill="#5E3830"/>
<path d="M281.236 184.309C278.026 194.176 272.998 216.757 271.611 231.611C271.15 236.548 275.063 240.806 280.025 240.806H314.367L286.563 225.424C286.563 225.424 298.598 206.636 299.337 201.608C300.238 195.485 290.705 178.984 290.705 178.984L281.239 184.309H281.236Z" fill="#70473C"/>
<path d="M277.945 230.57C275.091 221.371 286.598 194.965 286.929 194.409C287.14 194.057 290.768 189.88 295.301 187.895C293.045 183.053 290.702 178.992 290.702 178.992L281.236 184.316C278.026 194.184 272.998 216.765 271.611 231.618C271.15 236.556 275.063 240.814 280.025 240.814H291.37C286.264 239.114 279.941 237.006 277.945 230.573V230.57Z" fill="#5E3830"/>
<path d="M221.481 119.531L210.055 147.929C210.941 154.288 218.708 164.458 218.708 164.458L232.794 157.582C232.794 157.582 229.613 132.256 221.481 119.535V119.531Z" fill="#F9E9BC"/>
<path d="M221.481 145.192C221.481 140.687 222.118 136.549 223.184 133.29C224.683 128.709 224.113 123.673 221.53 119.605C221.512 119.581 221.498 119.556 221.481 119.531L210.055 147.929C210.941 154.288 218.708 164.458 218.708 164.458L225.123 161.326C222.934 157.969 221.481 152.001 221.481 145.195V145.192Z" fill="#EFDDB0"/>
<path d="M188.945 161.238C188.945 161.238 186.875 165.38 186.133 177.802C185.394 190.224 189.092 212.115 201.662 236.516L203.288 236.368C203.583 229.122 211.276 166.411 211.276 166.411L188.945 161.234V161.238Z" fill="#3B515F"/>
<path d="M177.705 156.508C170.607 167.747 161.289 206.942 170.902 236.375L171.789 236.67L191.017 186.088L201.665 181.208L200.335 165.383L177.708 156.508H177.705Z" fill="#4B5F6F"/>
<path d="M201.659 181.209L200.329 165.384L186.957 160.141C180.883 164.42 176.555 175.49 176.555 188.475C176.555 197.238 178.529 205.127 181.678 210.648L191.014 186.09L201.663 181.209H201.659Z" fill="#516877"/>
<path d="M169.795 213.814C171.632 191.883 182.294 174.102 193.608 174.102C195.434 174.102 197.165 174.566 198.777 175.436L200.339 165.375L177.712 156.5C170.615 167.74 161.296 206.934 170.91 236.367L171.596 236.595C169.802 230.145 169.087 222.291 169.798 213.81L169.795 213.814Z" fill="#3B515F"/>
<path d="M219.043 192.847H187.207C186.763 192.847 199.418 201.61 199.418 201.61L206.952 203.161L229.248 202.162L219.043 192.844V192.847Z" fill="#F3B15F"/>
<path d="M196.449 199.548C198.159 200.741 199.419 201.614 199.419 201.614L206.953 203.166L229.25 202.166L223.405 196.828L196.449 199.545V199.548Z" fill="#FCB873"/>
<path d="M228.023 201.055L199.414 201.614L230.575 214.371L255.644 204.053L228.023 201.055Z" fill="#924020"/>
<path d="M227.997 212.595C231.013 212.595 233.458 210.15 233.458 207.133C233.458 204.117 231.013 201.672 227.997 201.672C224.98 201.672 222.535 204.117 222.535 207.133C222.535 210.15 224.98 212.595 227.997 212.595Z" fill="#F99F40"/>
<path d="M220.731 209.603C223.747 209.603 226.192 207.157 226.192 204.141C226.192 201.125 223.747 198.68 220.731 198.68C217.715 198.68 215.27 201.125 215.27 204.141C215.27 207.157 217.715 209.603 220.731 209.603Z" fill="#F0515B"/>
<path d="M236.458 211.042C240.196 211.042 243.225 208.012 243.225 204.275C243.225 200.537 240.196 197.508 236.458 197.508C232.721 197.508 229.691 200.537 229.691 204.275C229.691 208.012 232.721 211.042 236.458 211.042Z" fill="#FAE3BD"/>
<path d="M248.324 191.633L231.18 204.762L244.334 206.384L256.091 204.178L267.073 195.293L248.324 191.633Z" fill="#DA9A49"/>
<path d="M230.543 241.104H260.641L256.094 204.18L230.772 204.764L230.543 241.104Z" fill="#F3B15F"/>
<path d="M260.637 241.106L257.952 219.295C257.125 219.052 256.256 218.922 255.352 218.922C247.511 218.922 239.963 228.423 238.492 240.145C238.454 240.469 238.418 240.789 238.387 241.106H260.637Z" fill="#FCB873"/>
<path d="M256.427 206.914L256.089 204.18L230.766 204.764L230.668 220.304C239.237 221.468 249.614 216.566 255.825 207.797C256.033 207.505 256.23 207.21 256.423 206.914H256.427Z" fill="#FCB873"/>
<path d="M234.501 241.104H197.523L199.42 201.617L231.182 204.763L234.501 241.104Z" fill="#E9A04F"/>
<path d="M215.657 218.559C209.84 216.508 203.812 216.683 198.604 218.629L197.523 241.105H232.09C232.238 231.449 225.83 222.148 215.653 218.559H215.657Z" fill="#F5A962"/>
<path d="M165.945 241.133H174.116C174.637 238.789 172.923 236.009 172.899 235.056C172.878 234.106 170.664 233.201 170.288 234.616C169.067 239.208 166.128 237.582 165.945 241.129V241.133Z" fill="#EAD9BD"/>
<path d="M210.835 168.04C200.321 171.133 177.113 162.42 176.226 158.869C175.339 155.319 176.226 153.102 176.226 153.102C176.226 153.102 175.339 147.63 176.522 143.045C177.704 138.459 182.142 132.544 182.142 132.544C182.142 132.544 186.431 119.675 199.592 114.502C212.757 109.326 221.332 115.832 222.666 122.191C223.996 128.55 216.012 146.152 216.012 146.152C216.012 146.152 213.348 167.301 210.835 168.04Z" fill="#F9E9BC"/>
<path d="M221.932 122.019C222.087 121.568 222.168 121.104 222.182 120.625C219.881 114.84 211.668 109.752 199.59 114.502C196.627 115.667 194.115 117.226 192 118.936C194.509 121.15 198 123.169 202.082 124.584C211.428 127.825 220.317 126.678 221.932 122.019Z" fill="#DFC794"/>
<path d="M182.142 132.547C182.142 132.547 177.704 138.462 176.522 143.048C175.339 147.633 176.226 153.105 176.226 153.105C176.226 153.105 175.339 155.322 176.226 158.872C176.564 160.224 180.136 162.321 185.01 164.232C191.597 161.498 198.033 155.096 202.087 146.373C207.943 133.771 182.142 132.547 182.142 132.547Z" fill="#EEDAA6"/>
<path d="M195.332 116.609C185.49 122.521 182.14 132.55 182.14 132.55C182.14 132.55 179.289 136.351 177.551 140.222C180.845 142.062 185.782 148.375 190.314 148.375C200.973 148.375 206.287 135.802 206.287 128.299C206.287 122.219 203.162 118.344 195.336 116.613L195.332 116.609Z" fill="#DFC794"/>
<path d="M191.163 158.132C186.43 150.665 184.805 142.529 184.805 142.529L189.168 139.422L193.236 156.355L191.167 158.129L191.163 158.132Z" fill="#DFC794"/>
<path d="M218.403 166.15C216.33 163.292 215 159.031 215 159.031C215 159.031 216.978 154.051 222.224 151.475C226.866 149.199 232.356 152.214 232.356 152.214C233.573 154.776 233.344 157.834 232.873 160.276L218.403 166.15Z" fill="#E54566"/>
<path d="M222.077 155.327C222.077 153.444 223.6 151.759 225.997 150.633C224.758 150.643 223.463 150.872 222.224 151.481C216.978 154.057 215 159.036 215 159.036C215 159.036 216.33 163.298 218.403 166.155L230.41 161.281C225.62 160.613 222.073 158.202 222.073 155.327H222.077Z" fill="#C53859"/>
<path d="M225.701 185.082C220.711 176.873 217.16 162.121 217.16 162.121C217.16 162.121 220.82 156.909 223.484 156.575C226.148 156.241 232.024 155.576 232.802 157.575C233.58 159.57 235.033 179.966 234.255 182.186C233.478 184.403 225.701 185.086 225.701 185.086V185.082Z" fill="#F8A27E"/>
<path d="M221.826 165.293C220.486 163.263 219.849 161.011 219.87 158.906C218.353 160.426 217.16 162.123 217.16 162.123C217.16 162.123 220.711 176.874 225.701 185.084C225.701 185.084 233.478 184.405 234.255 182.184C234.657 181.041 234.463 175.083 234.076 169.298C230.268 171.613 224.839 169.861 221.826 165.293Z" fill="#F5875E"/>
<path d="M235.848 178.302C231.154 179.248 212.014 176.701 210.339 175.782C208.664 174.864 209.34 169.568 211.081 168.917C212.823 168.262 235.405 172.745 236.27 173.428C236.492 173.604 236.759 174.29 236.235 174.29C235.355 174.29 234.922 177.345 235.764 177.563C236.622 177.784 235.848 178.305 235.848 178.305V178.302Z" fill="#A88F33"/>
<path d="M218.879 176.842C216.599 175.994 217.155 170.613 219.622 169.976C219.678 169.962 219.756 169.941 219.854 169.93C215.466 169.177 211.747 168.674 211.081 168.924C209.34 169.579 208.664 174.871 210.339 175.79C211.31 176.321 218.13 177.401 224.615 178.031C221.642 177.581 219.439 177.053 218.879 176.845V176.842Z" fill="#8B732C"/>
<path d="M233.599 183.854C228.94 185.638 208.847 184.53 206.985 183.791C205.124 183.048 205.155 177.017 206.837 176.024C208.519 175.032 232.273 177.573 233.265 178.181C233.48 178.315 233.789 179.114 232.931 179.142C231.491 179.188 231.857 183.168 232.846 183.192C233.983 183.221 233.596 183.857 233.596 183.857L233.599 183.854Z" fill="#FEC564"/>
<path d="M220.741 177.207C221.17 176.953 223.056 176.932 225.632 177.048C218.211 176.214 207.921 175.384 206.837 176.024C205.155 177.017 205.124 183.048 206.985 183.791C207.988 184.188 214.273 184.695 220.593 184.797C219.038 183.566 219.157 178.143 220.741 177.21V177.207Z" fill="#F99F40"/>
<path d="M221.537 178.833C223.395 177.675 233.044 179.041 233.044 179.041L232.946 183.299C232.946 183.299 221.956 183.052 221.485 182.436C221.009 181.821 221.249 179.012 221.541 178.833H221.537Z" fill="#FAEEDB"/>
<path d="M223.868 180.172C225.138 179.381 230.04 179.768 233.021 180.092L233.045 179.05C233.045 179.05 223.4 177.681 221.538 178.842C221.25 179.022 221.01 181.833 221.482 182.446C221.605 182.604 222.422 182.738 223.569 182.85C223.477 181.795 223.66 180.303 223.868 180.172Z" fill="#FAE3BD"/>
<path d="M219.598 171.652C222.561 171.215 236.239 174.294 236.239 174.294L235.768 177.567C235.768 177.567 219.531 174.967 218.926 174.382C218.321 173.802 219.137 171.719 219.598 171.652Z" fill="#FAE3BD"/>
<path d="M222.981 173.425C224.977 173.13 231.828 174.432 236.093 175.311L236.241 174.294C236.241 174.294 222.566 171.215 219.6 171.652C219.139 171.719 218.319 173.802 218.928 174.382C219.089 174.537 220.353 174.833 222.119 175.185C222.221 174.393 222.679 173.468 222.985 173.425H222.981Z" fill="#EBD099"/>
<path d="M224.368 191.259C224.149 189.707 215 189.461 215 189.461L217.129 194.022C221.288 194.088 224.586 192.815 224.368 191.259Z" fill="#F8A27E"/>
<path d="M233.795 190.929C228.914 192.593 208.282 191.263 206.396 190.264C204.51 189.264 204.696 184.57 206.47 183.57C208.243 182.571 232.686 183.94 233.682 184.718C234.681 185.495 233.795 190.929 233.795 190.929Z" fill="#F05876"/>
<path d="M232.685 190.321C229.247 191.598 211.332 189.987 211.332 189.987L211.719 184.328C211.719 184.328 231.851 184.993 232.685 185.88C233.516 186.767 233.22 190.117 232.685 190.317V190.321Z" fill="#FAE3BD"/>
<path d="M211.332 189.987C211.332 189.987 217.642 190.553 223.49 190.747C223.941 189.93 224.134 186.077 223.367 184.99C223.332 184.94 223.261 184.891 223.159 184.842C217.617 184.522 211.719 184.328 211.719 184.328L211.332 189.987Z" fill="#EBD099"/>
<path d="M192.974 164.009C189.979 156.577 184.433 133.507 184.764 130.621C185.098 127.736 190.975 120.194 194.082 119.195C197.19 118.196 203.622 118.861 205.396 122.411C207.169 125.962 209.517 159.431 209.517 159.431L192.97 164.009H192.974Z" fill="#F9E9BC"/>
<path d="M206.393 128.125C206.393 128.125 207.258 150.136 204.531 157.653L209.166 160.57C209.796 151.593 206.393 128.125 206.393 128.125Z" fill="#EEDAA6"/>
<path d="M196.381 147.074C193.639 133.315 195.73 121.305 201.047 120.246C201.986 120.059 202.961 120.232 203.95 120.71C201.314 118.676 196.606 118.391 194.083 119.204C190.975 120.203 185.099 127.745 184.764 130.63C184.43 133.516 189.98 156.586 192.974 164.018L201.318 161.71C199.266 157.776 197.503 152.719 196.381 147.078V147.074Z" fill="#EFDDB0"/>
<path d="M206.133 112.794C206.984 115.482 209.089 122.312 211.39 131.18C215.623 127.584 218.724 122.056 219.72 116.893C216.887 114.001 212.224 112.044 206.133 112.794Z" fill="#F8A27E"/>
<path d="M206.129 112.794C206.822 114.986 208.349 119.934 210.137 126.493C210.714 126.532 211.305 126.556 211.9 126.556C213.23 126.556 214.514 126.451 215.732 126.261C217.699 123.351 219.099 120.053 219.712 116.893C216.879 114.001 212.216 112.044 206.125 112.794H206.129Z" fill="#F5875E"/>
<path d="M211.723 121.644C206.972 119.311 207.95 112.66 207.95 112.66L216.825 104.672L220.485 112.769C220.485 112.769 218.046 124.748 211.723 121.644Z" fill="#F37148"/>
<path d="M210.372 110.527C210.741 105.424 210.15 100.248 210.445 99.3611C210.741 98.4743 212.145 98.696 212.145 98.696C212.145 98.696 211.849 95.9582 213.327 95.5148C214.805 95.0715 216.361 95.8843 216.361 95.8843C216.361 95.8843 217.765 92.851 220.724 92.1859C223.684 91.5208 224.423 93.1466 224.423 93.1466C224.423 93.1466 227.234 88.783 230.043 90.7818C232.854 92.7771 230.338 96.3277 230.338 96.3277C230.338 96.3277 231.299 96.6972 231.225 99.7306C231.151 102.764 227.083 108.532 227.083 108.532L215.583 110.84L210.372 110.527Z" fill="#943143"/>
<path d="M228.797 101.191C223.965 102.447 219.327 100.698 218.444 97.2885C218.028 95.6944 218.518 94.0229 219.637 92.5625C217.42 93.6006 216.357 95.8844 216.357 95.8844C216.357 95.8844 214.805 95.0715 213.324 95.5149C211.846 95.9583 212.141 98.6961 212.141 98.6961C212.141 98.6961 210.737 98.4744 210.442 99.3612C210.146 100.248 210.737 105.424 210.368 110.527L215.579 110.84L227.079 108.532C227.079 108.532 230.669 103.443 231.165 100.311C230.433 100.67 229.641 100.973 228.793 101.191H228.797Z" fill="#772032"/>
<path d="M224.422 121.473C223.457 123.651 215.768 121.807 214.551 120.474C213.33 119.143 215.107 112.155 215.772 110.268C216.437 108.382 216.771 103.723 217.324 102.949C217.88 102.171 228.637 100.387 228.194 102.949C227.638 106.165 226.529 116.705 224.422 121.473Z" fill="#F8A27E"/>
<path d="M216.583 100.542C220.739 97.8777 220.282 106.605 218.209 111.633L215.176 111.338C215.176 111.338 213.698 102.389 216.58 100.542H216.583Z" fill="#772032"/>
<path d="M215.473 112.304C212.736 111.048 212.218 107.792 212.957 106.388C213.696 104.984 214.931 104.551 215.769 106.314C217.173 109.274 215.473 112.304 215.473 112.304Z" fill="#F8A27E"/>
<path d="M264.277 177.608C266.484 170.905 263.306 151.835 265.892 149.499C268.479 147.162 272.072 163.641 272.522 169.8C272.976 175.961 271.502 181.933 269.996 182.69C268.489 183.446 263.633 179.554 264.277 177.608Z" fill="#E54566"/>
<path d="M263.973 177.688L264.771 176.445C264.771 176.445 270.796 176.48 272.71 178.268C274.625 180.056 272.274 181.921 272.274 181.921C272.274 181.921 271.37 185.07 268.987 183.747C266.605 182.421 263.976 177.688 263.976 177.688H263.973Z" fill="#5E3830"/>
<path d="M247.473 183.362C259.483 187.191 269.27 183.942 269.998 182.693C270.726 181.444 269.414 176.993 264.846 177.633C260.275 178.273 249.947 181.018 247.906 180.944C245.865 180.867 243.767 182.183 247.476 183.362H247.473Z" fill="#F8A27E"/>
<path d="M266.165 177.589C264.705 179.873 251.026 181.629 249.207 180.82C248.637 180.904 248.187 180.954 247.898 180.94C245.857 180.862 243.76 182.178 247.469 183.357C259.479 187.186 269.265 183.938 269.994 182.688C270.645 181.569 269.659 177.885 266.165 177.586V177.589Z" fill="#F5875E"/>
<path d="M270.574 188.999C281.114 192.881 293.581 183.978 293.694 183.868C293.807 183.756 285.597 168.227 285.597 168.227L270.845 168.339C270.845 168.339 272.397 175.88 272.51 177.657C272.622 179.431 270.578 188.999 270.578 188.999H270.574Z" fill="#E54566"/>
<path d="M272.097 181.187C273.069 176.771 275.349 173.656 278.199 173.47C282.316 173.202 286.054 179.146 286.55 186.747C286.571 187.071 286.585 187.391 286.592 187.711C290.751 185.994 293.647 183.921 293.7 183.868C293.813 183.756 285.603 168.227 285.603 168.227L270.852 168.339C270.852 168.339 272.403 175.88 272.516 177.657C272.551 178.224 272.365 179.593 272.097 181.187Z" fill="#CB3858"/>
<path d="M271.641 187.721C271.532 186.029 271.592 184.399 271.796 182.883C271.243 185.888 270.578 189.002 270.578 189.002C270.983 189.154 271.395 189.277 271.806 189.389C271.736 188.844 271.676 188.288 271.641 187.721Z" fill="#CB3858"/>
<path d="M265.188 149.591C264.418 154.602 264.745 168.67 265.966 169.666C267.187 170.666 285.268 168.78 285.598 168.224C285.933 167.668 282.048 147.257 281.161 146.927C280.274 146.592 274.285 144.931 272.842 145.153C269.957 145.596 265.41 148.148 265.188 149.591Z" fill="#F05876"/>
<path d="M281.158 146.93C280.764 146.782 279.353 146.367 277.783 145.977C278.973 151.621 280.94 167.154 280.644 167.66C280.398 168.086 271.611 169.226 265.84 169.515C265.879 169.578 265.921 169.631 265.963 169.666C267.184 170.666 286.039 169.332 286.373 168.78C286.707 168.224 282.048 147.261 281.161 146.927L281.158 146.93Z" fill="#E54566"/>
<path d="M282.48 170.65C283.31 161.476 280.734 152.992 280.734 152.992L286.386 159.601L287.287 170.432L282.476 170.65H282.48Z" fill="#CB3858"/>
<path d="M287.571 173.261C285.857 169 282.718 160.276 280.913 156.648C279.108 153.02 279.333 144.831 281.701 147.172C284.069 149.512 293.208 161.68 294.563 167.881C295.918 174.081 295.918 177.125 294.788 177.709C293.659 178.293 288.697 176.073 287.567 173.265L287.571 173.261Z" fill="#F05876"/>
<path d="M294.566 167.88C294.45 167.349 294.274 166.772 294.052 166.167C294.65 168.873 294.548 170.784 293.602 171.269C291.694 172.247 287.074 167.043 283.287 159.642C281.637 156.419 280.416 153.312 279.723 150.75C279.751 152.773 280.152 155.117 280.912 156.651C282.717 160.279 285.856 169.003 287.57 173.264C288.7 176.073 293.661 178.297 294.791 177.709C295.921 177.125 295.921 174.081 294.566 167.88Z" fill="#E54566"/>
<path d="M286.648 173.772L287.204 172.386C287.204 172.386 293.581 171.112 296.023 172.442C298.462 173.772 296.41 176.102 296.41 176.102C296.41 176.102 296.188 179.374 293.359 178.597C290.53 177.819 286.648 173.772 286.648 173.772Z" fill="#5E3830"/>
<path d="M269.18 185.199C281.929 185.315 294.562 178.882 294.791 177.71C295.016 176.542 289.826 173.146 287.457 173.614C285.089 174.082 272.565 181.219 271.098 181.803C269.63 182.387 269.18 185.195 269.18 185.195V185.199Z" fill="#F8A27E"/>
<path d="M292.276 175.156C290.009 177.803 285.942 180.572 280.938 182.616C277.584 183.985 274.308 184.83 271.461 185.147C283.394 184.559 294.577 178.805 294.788 177.708C294.897 177.144 293.754 176.071 292.276 175.156Z" fill="#F5875E"/>
<path d="M261.195 168.113C263.039 169.517 250.282 186.267 248.439 184.863L237.125 172.441C237.871 166.796 240.999 162.679 246.222 159.906L261.195 168.116V168.113Z" fill="#AB68AB"/>
<path d="M261.195 168.112L255.93 165.227C258.978 167.887 260.537 170.568 259.654 172.155C258.341 174.51 252.151 173.563 245.824 170.037C243.368 168.668 241.253 167.113 239.662 165.582C238.332 167.556 237.47 169.833 237.125 172.437L248.439 184.859C250.282 186.263 263.039 169.513 261.195 168.109V168.112Z" fill="#9F5BA4"/>
<path d="M245.833 182.983C242.881 181.934 241.315 180.467 241.536 179.081C241.758 177.694 243.004 176.66 244.503 178.215C246.002 179.767 247.554 183.595 245.833 182.983Z" fill="#F8A27E"/>
<path d="M252.376 181.646C248.9 177.142 242.53 173.33 237.498 170.477C237.34 171.11 237.213 171.764 237.125 172.44L248.439 184.862C249.012 185.298 250.645 183.975 252.566 181.899C252.503 181.815 252.443 181.73 252.376 181.642V181.646Z" fill="#AB68AB"/>
<path d="M257.405 178.289C260.966 173.718 262.729 169.213 261.346 168.225C259.963 167.236 255.955 170.139 252.397 174.71C248.836 179.281 247.073 183.785 248.456 184.774C249.839 185.763 253.847 182.86 257.405 178.289Z" fill="#8F4D9A"/>
<path d="M256.906 177.832C259.995 173.866 261.526 169.956 260.326 169.098C259.126 168.239 255.649 170.759 252.56 174.724C249.47 178.69 247.939 182.6 249.139 183.459C250.339 184.317 253.816 181.798 256.906 177.832Z" fill="#6B3579"/>
<path d="M253.154 173.656L252.707 174.318C252.753 174.459 262.775 183.108 262.775 183.108L263.735 182.021L253.157 173.656H253.154Z" fill="#FAE3BD"/>
<path d="M258.943 178.234L253.154 173.656L252.707 174.318C252.732 174.399 255.86 177.122 258.622 179.515C258.714 179.068 258.819 178.643 258.946 178.234H258.943Z" fill="#EBCA99"/>
<path d="M266.705 185.72C269.288 182.303 270.442 178.823 269.284 177.95C268.126 177.078 265.097 179.136 262.514 182.553C259.931 185.97 258.776 189.447 259.934 190.323C261.092 191.196 264.122 189.137 266.705 185.72Z" fill="#FAE3BD"/>
<path d="M273.553 152.328C277.255 151.473 280.482 150.041 282.798 148.38C282.354 147.859 281.981 147.444 281.703 147.17C281.33 146.804 281.013 146.695 280.746 146.79C279.113 146.279 274.137 144.953 272.842 145.153C269.957 145.597 265.41 148.148 265.189 149.591C265.051 150.485 264.949 151.674 264.879 153.018C267.427 153.257 270.428 153.057 273.557 152.332L273.553 152.328Z" fill="#E54566"/>
<path d="M271.097 161.812C271.097 161.812 276.453 150.784 279.17 146.336C277.012 145.748 273.838 144.999 272.839 145.153C270.668 145.488 267.553 147.018 266.051 148.366C267.223 156.946 271.097 161.812 271.097 161.812Z" fill="#F8A27E"/>
<path d="M272.839 145.157C270.668 145.491 267.553 147.022 266.051 148.37C266.283 150.055 266.617 151.597 267.004 152.987C269.147 153.068 271.583 152.807 274.095 152.16C274.859 151.963 275.594 151.737 276.309 151.488C277.354 149.503 278.374 147.638 279.17 146.336C277.012 145.748 273.838 144.999 272.839 145.153V145.157Z" fill="#F5875E"/>
<path d="M269.472 134.617C272.136 140.976 275.187 145.392 275.187 145.392C275.187 145.392 273.466 148.887 271.323 149.481C269.18 150.073 266.073 145.561 264.816 141.493C263.574 137.475 269.475 134.617 269.475 134.617H269.472Z" fill="#F37148"/>
<path d="M263.392 148.816C267.748 147.992 272.045 141.57 271.007 137.65C269.803 133.089 259.637 132.956 257.177 126.484C251.853 136.985 263.388 148.816 263.388 148.816H263.392Z" fill="#F8A27E"/>
<path d="M272.186 135.271C272.341 133.399 271.721 131.819 270.806 131.745C269.892 131.671 269.022 133.124 268.867 135C268.713 136.872 269.332 138.452 270.247 138.526C271.162 138.6 272.031 137.143 272.186 135.271Z" fill="#F8A27E"/>
<path d="M323.234 240.803H311.551C311.551 240.803 310.443 238.586 311.551 236.883C311.551 236.883 321.091 238.435 323.234 240.803Z" fill="#EAD9BD"/>
<path d="M193.085 166.005C190.646 163.454 189.312 158.351 189.312 158.351C189.312 158.351 192.159 149.973 196.079 148.702C201.442 146.964 206.397 150.254 206.397 150.254C207.9 152.629 208.642 155.05 208.318 157.538L193.085 166.005Z" fill="#E54566"/>
<path d="M202.583 158.19C198.525 155.061 196.329 150.948 197.174 148.414C196.811 148.488 196.449 148.583 196.079 148.703C192.159 149.973 189.312 158.352 189.312 158.352C189.312 158.352 190.643 163.454 193.085 166.005L204.645 159.58C203.951 159.172 203.258 158.714 202.579 158.19H202.583Z" fill="#C53859"/>
<path d="M203.295 188.303C198.858 181.427 192.868 165.342 192.534 163.012C192.2 160.682 195.691 154.116 197.746 153.472C201.296 152.364 205.734 149.921 209.059 157.797C210.305 160.746 213.053 183.309 213.053 183.309L203.292 188.299L203.295 188.303Z" fill="#F8A27E"/>
<path d="M200.461 174.334C196.538 164.752 196.756 155.592 200.954 153.875C203.139 152.981 205.976 154.287 208.742 157.095C205.451 150.078 200.627 150.961 197.076 152.96C195.2 154.016 192.195 160.688 192.53 163.017C192.864 165.347 198.853 181.432 203.291 188.308L207.957 185.922C206.007 181.819 202.485 179.275 200.461 174.338V174.334Z" fill="#F5875E"/>
<path d="M205.582 193.335C201.088 190.161 202.221 184.386 202.221 184.386L212.606 179.875C212.606 179.875 217.634 192.519 218.964 194C218.964 194 208.094 195.109 205.578 193.335H205.582Z" fill="#F8A27E"/>
<path d="M208.633 188.823C207.007 186.955 207.229 183.925 205.43 182.07L201.366 184.755C201.366 184.755 201.011 190.428 205.508 193.602C207.081 194.71 212.275 195.266 215.372 194.341C217.427 194.193 218.968 194 218.968 194C218.954 193.986 218.936 193.961 218.922 193.943C215.685 194.169 211.638 192.275 208.633 188.823Z" fill="#F5875E"/>
<path d="M211.333 177.875C216.658 181.148 221.538 185.694 222.316 186.306C223.094 186.915 222.429 189.136 221.208 188.97C219.987 188.805 216.218 187.584 213.666 185.81C211.115 184.037 211.337 177.879 211.337 177.879L211.333 177.875Z" fill="#F8A27E"/>
<g style="mix-blend-mode:overlay">
<path d="M246.111 182.31C246.132 180.368 247.857 176.796 250.672 173.179C253.357 169.733 256.278 167.214 258.224 166.489L257.006 165.82C255.067 166.707 252.329 169.135 249.806 172.373C247.062 175.899 245.348 179.382 245.242 181.36L246.108 182.31H246.111Z" fill="#FAE3BD"/>
</g>
<g style="mix-blend-mode:overlay">
<path d="M254.885 164.663L253.702 164.016C251.806 165.05 249.304 167.345 246.978 170.325C244.609 173.362 243.015 176.371 242.551 178.408L243.392 179.334C243.814 177.296 245.422 174.231 247.84 171.131C250.3 167.971 252.96 165.596 254.885 164.663Z" fill="#FAE3BD"/>
</g>
<path d="M242.105 174.754C241.613 174.645 241.102 176.96 241.651 179.793L242.844 179.627C242.749 178.487 242.598 174.866 242.105 174.754Z" fill="#F8A27E"/>
<path d="M243.953 175.84C243.47 175.727 242.696 178.057 242.918 180.907L244.23 180.707C244.269 179.559 244.435 175.952 243.953 175.843V175.84Z" fill="#F8A27E"/>
<path d="M245.832 177.926C245.427 177.827 244.657 179.615 244.438 182.018C244.396 182.472 245.804 182.152 245.804 182.152C245.934 180.949 246.303 178.045 245.832 177.929V177.926Z" fill="#F8A27E"/>
<path d="M269.284 177.95C268.126 177.078 265.096 179.136 262.514 182.553C259.931 185.97 258.776 189.447 259.934 190.323C260.124 190.467 260.37 190.524 260.652 190.517C260.04 189.274 261.201 186.171 263.513 183.109C265.67 180.255 268.137 178.352 269.566 178.313C269.495 178.169 269.404 178.042 269.284 177.95Z" fill="#EBCA99"/>
<path d="M270.731 185.18C269.105 185.588 266.625 186.64 265.703 186.419C264.777 186.197 265.755 181.985 266.442 181.833C268.289 181.425 271.692 181.573 271.692 181.573L270.731 185.176V185.18Z" fill="#F8A27E"/>
<path d="M267.445 183.242C265.64 183.414 262.342 183.129 262.121 182.651C261.899 182.169 266.78 181.725 267.445 181.838C268.11 181.951 268.223 183.168 267.445 183.242Z" fill="#F8A27E"/>
<path d="M268.57 182.785C267.314 181.768 264.604 179.716 265.322 178.918C265.674 178.527 268.268 180.937 269.351 181.493C269.879 181.764 269.112 183.225 268.57 182.785Z" fill="#F8A27E"/>
<path d="M266.48 184.751C264.675 184.923 261.452 184.899 261.23 184.417C261.008 183.934 265.889 183.491 266.554 183.604C267.219 183.716 267.258 184.677 266.48 184.751Z" fill="#F8A27E"/>
<path d="M266.968 186.312C265.195 186.678 261.985 187.006 261.714 186.552C261.44 186.098 266.247 185.126 266.919 185.165C267.591 185.204 267.735 186.154 266.968 186.312Z" fill="#F8A27E"/>
<path d="M295.746 145.002C295.746 145.002 297.002 147.515 294.933 147.145C292.864 146.776 289.239 143.077 289.83 136.94C289.971 135.491 290.105 134.069 290.147 132.672C287.645 134.132 285.91 137.285 285.91 140.952C285.91 146.005 289.2 150.105 293.258 150.105C294.757 150.105 296.15 149.542 297.315 148.581C297.787 147.406 297.167 145.938 295.746 145.002Z" fill="#782435"/>
<path d="M214.322 109.012C214.617 108.449 215.113 108.273 215.448 108.984C215.486 109.069 215.521 109.153 215.55 109.237C215.613 108.657 215.567 107.981 215.247 107.309C214.754 106.267 214.026 106.524 213.59 107.351C213.227 108.041 213.378 109.484 214.371 110.374C214.156 109.867 214.156 109.325 214.322 109.012Z" fill="#EB4F44"/>
<path d="M223.371 186.25L223.593 187.08L231.303 186.859L223.371 186.25Z" fill="#EBD099"/>
<path d="M232.763 185.992C232.485 186.939 232.151 188.663 232.763 190.257C233.495 189.747 233.776 186.9 232.763 185.992Z" fill="#924020"/>
<path d="M173.672 174.77C180.661 173.106 184.32 167.782 184.32 167.782L180.105 166.117L173.672 174.77Z" fill="#2D424C"/>
<path d="M176.223 153.104C176.223 153.104 175.97 153.744 175.871 154.877C181.544 156.538 187.906 155.989 187.906 155.989C187.906 155.989 182.409 155.356 175.952 150.32C176.04 151.978 176.223 153.107 176.223 153.107V153.104Z" fill="#DFC794"/>
<path d="M222.9 105.464L219.631 105.453C219.356 105.453 219.124 105.671 219.113 105.942L219.075 106.963C219.064 107.234 219.279 107.455 219.553 107.455L222.822 107.466C223.097 107.466 223.329 107.248 223.34 106.977L223.378 105.956C223.389 105.685 223.174 105.464 222.9 105.464Z" fill="#943143"/>
<path d="M228.226 106.723L225.566 106.118C225.34 106.068 225.115 106.244 225.055 106.515L224.837 107.532C224.781 107.803 224.914 108.064 225.136 108.113L227.797 108.718C228.022 108.767 228.247 108.591 228.307 108.321L228.525 107.304C228.581 107.033 228.448 106.772 228.226 106.723Z" fill="#943143"/>
<path d="M223.302 108.93C223.717 111.77 222.971 114.331 222.971 114.331C222.971 114.331 221.884 114.715 221.416 114.549L221.398 114.606L223.608 114.887C223.608 114.887 224.119 112.174 223.302 108.933V108.93Z" fill="#F37148"/>
<path d="M223.883 116.129L218.943 114.32C218.943 114.32 218.221 116.365 220.28 117.758C222.342 119.152 223.88 116.133 223.88 116.133L223.883 116.129Z" fill="#422932"/>
<path d="M222.519 117.267C223.037 116.799 223.35 116.187 223.35 116.187L219.363 114.727C219.363 114.727 219.159 115.311 219.342 116.022L222.519 117.267Z" fill="#FFEEDC"/>
<path d="M221.17 109.951C221.445 110.103 221.645 110.328 221.782 110.585C221.92 109.881 221.687 109.219 221.167 108.987C220.537 108.709 219.734 109.17 219.372 110.018C219.361 110.046 219.354 110.075 219.344 110.099C219.889 109.716 220.593 109.628 221.17 109.948V109.951Z" fill="#422E2F"/>
<path d="M225.974 110.759C226.111 110.917 226.206 111.111 226.266 111.322C226.421 110.731 226.354 110.15 226.048 109.854C225.622 109.446 224.904 109.745 224.443 110.523C224.422 110.555 224.408 110.59 224.391 110.625C224.926 110.256 225.559 110.284 225.971 110.762L225.974 110.759Z" fill="#422E2F"/>
<path d="M261.951 136.187C261.645 135.297 261.821 134.456 262.339 134.304C262.859 134.153 263.531 134.758 263.838 135.652C264.144 136.546 263.964 137.387 263.444 137.531C262.923 137.676 262.254 137.07 261.951 136.184V136.187Z" fill="#4B3737"/>
<path d="M264.821 132.325C264.8 131.875 264.483 131.554 264.114 131.607L261.088 132.037C260.711 132.089 260.426 132.501 260.451 132.959L260.458 133.117L264.832 132.582L264.818 132.329L264.821 132.325Z" fill="#7E2D41"/>
<path d="M258.282 133.544C258.071 133.128 257.677 132.942 257.406 133.125L255.22 134.603C254.957 134.782 254.911 135.261 255.118 135.669L255.238 135.901L258.356 133.688L258.282 133.544Z" fill="#7E2D41"/>
<path d="M261.025 138.645C260.866 138.557 260.761 138.508 260.761 138.508C260.602 139.539 260.317 142.534 262.749 140.676C262.788 140.647 262.717 140.577 262.707 140.528C260.996 141.098 260.919 139.602 261.021 138.645H261.025Z" fill="#EB7656"/>
<path d="M261.523 142.16C261.604 142.343 261.681 142.526 261.776 142.705C262.79 144.658 264.338 145.506 265.172 144.958C265.943 144.451 265.82 142.987 265.014 141.164L261.52 142.16H261.523Z" fill="#492F37"/>
<path d="M262.58 143.466C262.422 143.304 262.263 143.093 262.108 142.783C262.038 142.642 261.978 142.501 261.922 142.361L264.906 141.414C265.187 142.079 265.226 142.456 265.128 142.72L262.583 143.466H262.58Z" fill="#F8E9D6"/>
<path d="M262.45 134.597C263.084 134.579 263.766 134.893 264.361 135.413C263.749 134.41 262.943 133.707 262.288 133.703C261.708 133.703 261.395 134.249 261.395 135.072C261.655 134.787 262.01 134.611 262.454 134.597H262.45Z" fill="#4B3737"/>
<path d="M257.282 137.795C256.947 136.88 257.042 135.962 257.496 135.743C257.95 135.522 258.594 136.088 258.929 137.01C259.263 137.929 259.164 138.847 258.707 139.062C258.253 139.276 257.616 138.71 257.282 137.798V137.795Z" fill="#4B3737"/>
<path d="M257.619 136.043C258.185 135.952 258.815 136.205 259.378 136.691C258.762 135.691 257.995 135.033 257.411 135.107C256.894 135.171 256.651 135.793 256.707 136.67C256.918 136.335 257.224 136.103 257.619 136.04V136.043Z" fill="#4B3737"/>
<path d="M350.693 240.961H0.308594C0.308594 240.961 88.1071 252.457 171.07 252.457C254.034 252.457 350.693 240.961 350.693 240.961Z" fill="#FFCE33"/>
</svg>
