<svg width="25" height="24" viewBox="0 0 25 24" fill="none" xmlns="http://www.w3.org/2000/svg">
<path d="M22.1809 16.9596L19.0509 9.64964C17.9909 7.16964 16.0409 7.06964 14.7309 9.42964L12.8409 12.8396C11.8809 14.5696 10.0909 14.7196 8.8509 13.1696L8.6309 12.8896C7.3409 11.2696 5.5209 11.4696 4.5909 13.3196L2.8709 16.7696C1.6609 19.1696 3.4109 21.9996 6.0909 21.9996H18.8509C21.4509 21.9996 23.2009 19.3496 22.1809 16.9596Z" stroke="#292D32" stroke-width="1.5" stroke-linecap="round" stroke-linejoin="round"/>
<path d="M7.46875 8C9.1256 8 10.4688 6.65685 10.4688 5C10.4688 3.34315 9.1256 2 7.46875 2C5.8119 2 4.46875 3.34315 4.46875 5C4.46875 6.65685 5.8119 8 7.46875 8Z" stroke="#292D32" stroke-width="1.5" stroke-linecap="round" stroke-linejoin="round"/>
</svg>
