<svg width="24" height="24" viewBox="0 0 24 24" fill="none" xmlns="http://www.w3.org/2000/svg">
<path d="M13.436 16.8877C12.0498 16.8877 10.7715 16.4395 9.72559 15.6924L5.79102 19.627C5.6084 19.8096 5.36768 19.9009 5.11035 19.9009C4.5708 19.9009 4.18896 19.4858 4.18896 18.9546C4.18896 18.7056 4.27197 18.4648 4.45459 18.2905L8.36426 14.3726C7.54248 13.2935 7.05273 11.957 7.05273 10.5044C7.05273 6.99316 9.9248 4.12109 13.436 4.12109C16.939 4.12109 19.8193 6.98486 19.8193 10.5044C19.8193 14.0156 16.9473 16.8877 13.436 16.8877ZM13.436 15.5098C16.1753 15.5098 18.4414 13.2437 18.4414 10.5044C18.4414 7.76514 16.1753 5.49902 13.436 5.49902C10.6968 5.49902 8.43066 7.76514 8.43066 10.5044C8.43066 13.2437 10.6968 15.5098 13.436 15.5098Z" fill="#D0D1D2"/>
</svg>
